<svg width="25" height="24" viewBox="0 0 25 24" fill="none" xmlns="http://www.w3.org/2000/svg">
<path d="M18.293 8.00177C18.293 6.41047 17.6608 4.88435 16.5356 3.75913C15.4104 2.63391 13.8843 2.00177 12.293 2.00177C10.7017 2.00177 9.17555 2.63391 8.05033 3.75913C6.92511 4.88435 6.29297 6.41047 6.29297 8.00177C6.29297 15.0018 3.29297 17.0018 3.29297 17.0018H21.293C21.293 17.0018 18.293 15.0018 18.293 8.00177Z" stroke="#F0F0F0" stroke-width="1.5" stroke-linecap="round" stroke-linejoin="round"/>
<path d="M14.023 21.0018C13.8472 21.3048 13.5948 21.5564 13.2912 21.7313C12.9876 21.9062 12.6434 21.9982 12.293 21.9982C11.9426 21.9982 11.5984 21.9062 11.2948 21.7313C10.9911 21.5564 10.7388 21.3048 10.563 21.0018" stroke="#F0F0F0" stroke-width="1.5" stroke-linecap="round" stroke-linejoin="round"/>
</svg>
