<svg width="120" height="120" viewBox="0 0 120 120" fill="none" xmlns="http://www.w3.org/2000/svg">
<path d="M114.859 18.0317C110.879 15.7321 106.899 13.4217 102.908 11.1221C100.537 9.75732 99.3677 10.069 97.9945 12.4331C95.0764 17.4944 92.169 22.5665 89.2509 27.6278C88.9398 28.1651 88.5965 28.6702 87.9742 29.6588V27.4344C87.9742 19.5146 87.9742 11.5949 87.9742 3.66437C87.9742 0.805946 87.1589 0 84.2837 0C58.3748 0.0107459 32.4659 0.0107459 6.55706 0.0107459C3.4673 0.0107459 2.72705 0.773708 2.72705 3.92227C2.72705 41.2859 2.72705 78.6496 2.72705 116.013C2.72705 119.259 3.45658 120 6.65361 120C32.4445 120 58.2353 120 84.0262 120C87.2554 120 87.9635 119.28 87.9742 116.045C87.9742 102.215 87.9528 88.3747 88.0171 74.5446C88.0171 73.3196 88.3712 71.9656 88.9719 70.9018C98.0481 55.0085 107.189 39.1582 116.318 23.2972C117.885 20.5785 117.606 19.6221 114.859 18.0317ZM82.5671 114.584H8.16631V5.4482H82.6637V7.27501C82.6637 17.3225 82.6852 27.3699 82.6315 37.4281C82.6315 38.3738 82.3526 39.4269 81.8913 40.2436C78.7157 45.9067 75.4114 51.4946 72.2358 57.1577C71.6028 58.286 70.9055 58.6836 69.6181 58.6836C53.1501 58.6406 36.6822 58.6514 20.2249 58.6621C19.5169 58.6621 18.7873 58.6299 18.1222 58.8018C16.749 59.1564 16.0087 60.1236 16.1374 61.5528C16.2662 62.9498 17.103 63.7987 18.5406 63.9491C19.1306 64.0029 19.7207 63.9814 20.3108 63.9814C35.5342 63.9814 50.7684 63.9814 65.9919 63.9814H68.2556C66.8609 66.4314 65.3589 68.5592 64.3827 70.9018C63.1167 73.9429 61.2071 74.8025 57.9135 74.7488C45.5867 74.5124 33.2491 74.6521 20.9115 74.6521C20.4395 74.6521 19.9674 74.6521 19.4954 74.6521C17.2961 74.7058 16.0838 75.7052 16.1267 77.4246C16.1696 79.0794 17.3176 79.9821 19.4739 79.9928C32.6912 80.0036 45.9085 79.9928 59.1365 79.9928C59.8339 79.9928 60.5419 79.9928 61.3465 79.9928C62.1834 82.8513 62.9987 85.613 63.8141 88.3854C64.6187 91.1149 65.4448 91.577 68.2127 90.8355C71.12 90.0618 73.9952 89.1591 76.9241 88.5144C78.6513 88.1275 79.7456 87.2463 80.4859 85.6989C81.033 84.5491 81.7196 83.4745 82.5993 81.9271V114.595L82.5671 114.584ZM79.177 77.3493C78.0613 79.2729 76.9991 81.1427 75.8941 82.991C75.7654 83.2166 75.4543 83.3886 75.1968 83.4638C73.0082 84.087 70.8089 84.6888 68.4165 85.3551C67.7513 82.9587 67.1184 80.7128 66.5176 78.4562C66.4639 78.252 66.464 77.9619 66.5605 77.7792C67.6441 75.8556 68.7491 73.9429 69.8541 72.0086C73.0511 73.8462 76.0121 75.544 79.1663 77.3601L79.177 77.3493ZM81.7196 72.6641C78.662 70.891 75.6796 69.1609 72.5254 67.3341C77.0099 59.5648 81.3656 52.0211 85.8286 44.2733C88.8754 46.0356 91.8471 47.755 95.0227 49.5925C90.5919 57.2759 86.2148 64.8625 81.7196 72.6641ZM97.6941 44.9288C94.5828 43.1235 91.6433 41.4041 88.5106 39.5881C92.9307 31.9155 97.3078 24.3288 101.803 16.5273C104.871 18.3111 107.854 20.0304 110.997 21.8465C106.577 29.5191 102.189 37.1058 97.6833 44.9181L97.6941 44.9288Z" fill="#CCCCCC"/>
<path d="M19.0341 47.9592C27.7562 47.9807 36.489 47.9592 45.2112 47.9592C53.2896 47.9592 61.368 47.9592 69.4357 47.9592C70.3154 47.9592 71.2059 48.0021 72.0856 47.9377C73.5875 47.8195 74.478 46.9813 74.5746 45.4661C74.6711 43.9294 73.8021 43.0375 72.3752 42.7151C71.8066 42.5862 71.2059 42.6507 70.6158 42.6507C59.5871 42.6507 48.5691 42.6507 37.5404 42.6507C31.7579 42.6507 25.986 42.6507 20.2035 42.6507C19.7958 42.6507 19.3774 42.6292 18.9697 42.6507C17.1888 42.7474 16.0731 43.8005 16.0945 45.3479C16.116 46.8846 17.2425 47.9484 19.0341 47.9484V47.9592Z" fill="#CCCCCC"/>
<path d="M63.7604 94.704C60.0806 94.4139 56.5403 94.4784 54.2015 98.046C54.1478 98.1213 53.9977 98.1427 53.7724 98.2287C52.2168 95.7571 50.6933 93.2533 49.0841 90.8033C47.9576 89.0947 46.0372 88.6541 44.943 90.1478C42.0034 94.1237 38.2056 95.381 33.4529 94.7685C31.8544 94.5643 30.6958 95.9183 30.7065 97.369C30.7065 98.7338 31.7793 99.8836 33.3027 100.013C34.3541 100.099 35.4269 100.002 36.489 100.056C40.1689 100.249 43.8058 100.367 45.9836 96.0365C47.6358 98.6585 48.9768 100.797 50.3178 102.935C52.2382 105.998 53.6758 106.256 56.0682 103.645C58.2032 101.313 60.3059 99.3893 63.8677 99.9803C65.4448 100.238 66.6356 98.8305 66.6571 97.4013C66.6785 95.8861 65.5091 94.8545 63.7497 94.7148L63.7604 94.704Z" fill="#CCCCCC"/>
<path d="M32.5625 26.65C41.1129 26.6607 49.6527 26.6607 58.2031 26.65C60.1021 26.65 61.3251 25.5861 61.3465 24.0279C61.368 22.4053 60.1235 21.3415 58.0959 21.3415C53.9118 21.32 49.7278 21.3415 45.5437 21.3415C41.1773 21.3415 36.8216 21.32 32.4552 21.3415C30.6099 21.3522 29.5049 22.3301 29.4405 23.8668C29.3654 25.5539 30.5456 26.65 32.5625 26.65Z" fill="#CCCCCC"/>
</svg>
