<svg width="21" height="21" viewBox="0 0 21 21" fill="none" xmlns="http://www.w3.org/2000/svg">
<path d="M15.2896 0.5C16.59 0.518653 17.6302 0.866189 18.5456 1.57795C20.6545 3.21647 21.1269 6.20292 19.6172 8.41871C19.4355 8.68574 19.2273 8.94099 18.9994 9.17072C17.7952 10.3871 16.589 11.6035 15.3672 12.8022C14.5146 13.6376 13.4774 14.103 12.2859 14.208C11.0798 14.3141 9.97279 14.0176 8.97289 13.3392C8.6242 13.1026 8.27846 12.8532 8.05746 12.4792C7.76083 11.9765 7.86298 11.3001 8.28534 10.9231C8.75288 10.5059 9.41784 10.4705 9.90502 10.8397C10.1133 10.9977 10.3028 11.1833 10.5238 11.3207C11.509 11.9343 12.7957 11.7861 13.6188 10.9683C14.8299 9.76467 16.038 8.55713 17.2432 7.34665C17.971 6.61525 18.1694 5.50098 17.753 4.55262C17.3365 3.60328 16.3808 3.00245 15.3475 3.04074C14.6796 3.06528 14.107 3.31465 13.6335 3.7849C13.0393 4.37394 12.45 4.96888 11.8567 5.5589C11.4393 5.9732 10.8195 6.05959 10.3274 5.77979C9.60348 5.36844 9.45222 4.3926 10.0415 3.79472C10.7478 3.07805 11.452 2.35843 12.1965 1.683C12.8487 1.09003 13.6453 0.746417 14.5146 0.593265C14.8171 0.540251 15.1255 0.520617 15.2905 0.501963L15.2896 0.5Z" fill="#131415"/>
<path d="M5.25989 20.5002C4.40634 20.4884 3.35635 20.1536 2.45172 19.4281C0.976425 18.2431 0.339946 16.69 0.535408 14.8159C0.654257 13.6751 1.15028 12.6894 1.9557 11.8736C3.17955 10.6347 4.40634 9.39767 5.65278 8.1813C6.49356 7.36057 7.52097 6.90602 8.69374 6.79999C9.90384 6.69102 11.0157 6.98456 12.0195 7.66687C12.3712 7.90641 12.7218 8.15774 12.9428 8.53669C13.2355 9.03738 13.1255 9.72263 12.7012 10.0908C12.2278 10.5021 11.5746 10.5355 11.0913 10.1693C10.8831 10.0113 10.6935 9.82571 10.4725 9.68827C9.48737 9.0737 8.19968 9.21998 7.37756 10.0378C6.16648 11.2414 4.95835 12.4499 3.75317 13.6594C3.02141 14.3937 2.823 15.5149 3.24536 16.4652C3.66575 17.4126 4.62243 18.0085 5.65769 17.9663C6.32069 17.9398 6.8894 17.6904 7.35988 17.2251C7.95413 16.636 8.54346 16.0411 9.13672 15.4511C9.55809 15.0329 10.1798 14.9474 10.6768 15.2341C11.3978 15.6504 11.5363 16.6223 10.9489 17.2221C10.337 17.8475 9.72016 18.468 9.09154 19.0776C8.1378 20.0014 6.88154 20.5002 5.26088 20.5002H5.25989Z" fill="#131415"/>
</svg>
