<svg width="16" height="16" viewBox="0 0 16 16" fill="none" xmlns="http://www.w3.org/2000/svg">
<path d="M14.3076 5.41669C13.9263 5.41669 13.6174 5.71654 13.6174 6.08659C13.6174 6.18386 13.6391 6.27512 13.6773 6.35835L10.8118 7.59485L8.22114 3.70484C8.49395 3.61559 8.68925 3.36488 8.68925 3.07105C8.68925 2.701 8.38028 2.40115 7.99897 2.40115C7.61766 2.40115 7.30868 2.701 7.30868 3.07105C7.30868 3.36588 7.50502 3.61559 7.77679 3.70484L5.18615 7.59485L2.32064 6.35835C2.35887 6.27512 2.38057 6.18286 2.38057 6.08659C2.38057 5.71654 2.0716 5.41669 1.69029 5.41669C1.30898 5.41669 1 5.71654 1 6.08659C1 6.45663 1.30898 6.75648 1.69029 6.75648C1.74505 6.75648 1.79776 6.75046 1.84942 6.73843L3.23723 12.4336L8 12.4195L12.7628 12.4336L14.1506 6.73843C14.2012 6.75046 14.2549 6.75648 14.3097 6.75648C14.691 6.75648 15 6.45663 15 6.08659C15 5.71654 14.691 5.41669 14.3097 5.41669H14.3076Z" fill="#FFEA02"/>
<path d="M12.7819 12.7876H3.23779V13.5989H12.7819V12.7876Z" fill="#FFEA02"/>
</svg>
