<svg viewBox="0 0 24 24" fill="none" xmlns="http://www.w3.org/2000/svg">
<path fill-rule="evenodd" clip-rule="evenodd" d="M22.78 12.2501C22.78 11.4701 22.71 10.7201 22.58 10.0001H12.22V14.2551H18.14C17.885 15.6301 17.11 16.7951 15.945 17.5751V20.3351H19.5C21.58 18.4201 22.78 15.6001 22.78 12.2501Z" fill="#0015FF"/>
<path fill-rule="evenodd" clip-rule="evenodd" d="M12.2197 23C15.1897 23 17.6797 22.015 19.4997 20.335L15.9447 17.575C14.9597 18.235 13.6997 18.625 12.2197 18.625C9.35468 18.625 6.92967 16.69 6.06466 14.09H2.38965V16.94C4.19966 20.535 7.91967 23 12.2197 23Z" fill="#0015FF"/>
<path fill-rule="evenodd" clip-rule="evenodd" d="M6.06499 14.09C5.84499 13.43 5.71999 12.725 5.71999 12C5.71999 11.275 5.84499 10.5699 6.06499 9.90995V7.05994H2.38998C1.64497 8.54494 1.21997 10.2249 1.21997 12C1.21997 13.775 1.64497 15.455 2.38998 16.94L6.06499 14.09Z" fill="#0015FF"/>
<path fill-rule="evenodd" clip-rule="evenodd" d="M12.2197 5.37502C13.8347 5.37502 15.2847 5.93002 16.4247 7.02002L19.5797 3.86501C17.6747 2.09 15.1847 1 12.2197 1C7.91967 1 4.19966 3.46501 2.38965 7.06002L6.06466 9.91003C6.92967 7.31002 9.35468 5.37502 12.2197 5.37502Z" fill="#0015FF"/>
</svg>
