<svg width="600" height="425" viewBox="0 0 600 425" fill="none" xmlns="http://www.w3.org/2000/svg">
<path d="M211.621 145.702C210.747 151.125 209.698 155.323 208.475 158.297C207.251 161.096 205.678 163.458 203.756 165.382C202.008 167.132 199.736 168.881 196.939 170.63C194.143 172.205 190.822 174.566 186.977 177.715C185.579 178.765 184.268 179.727 183.044 180.602C181.821 181.476 180.597 182.526 179.374 183.75C175.878 184.8 171.596 186.549 166.528 188.998C161.459 191.273 156.216 193.634 150.797 196.083C145.554 198.357 140.485 200.369 135.592 202.119C130.873 203.868 127.027 204.568 124.056 204.218C123.007 205.617 121.172 206.492 118.551 206.842C115.929 207.192 113.919 207.367 112.521 207.367C110.249 207.367 107.889 207.542 105.442 207.891C103.17 208.241 101.16 209.291 99.4122 211.04C99.0627 211.39 98.8005 211.565 98.6257 211.565C98.6257 211.74 98.6257 211.827 98.6257 211.827C98.8005 211.827 98.8005 211.827 98.6257 211.827C98.6257 212.002 98.4509 212.352 98.1014 212.877C96.1788 215.151 94.1688 216.376 92.0715 216.551C90.1489 216.726 88.2263 216.376 86.3037 215.501C84.3812 214.801 82.3712 213.839 80.2738 212.615C78.3513 211.39 76.3413 210.515 74.2439 209.991C72.3214 209.291 70.3114 209.203 68.214 209.728C66.1167 210.078 64.0193 211.478 61.922 213.927C60.6985 210.778 58.7759 208.941 56.1542 208.416C53.5325 207.891 50.8235 207.629 48.027 207.629C45.4053 207.454 42.871 207.192 40.4241 206.842C37.9771 206.317 36.3167 204.655 35.4428 201.856V201.594L29.9373 196.871L29.1508 197.658C28.2769 198.532 27.5777 199.495 27.0534 200.544C26.5291 201.594 25.9173 202.556 25.2182 203.431C23.82 205.53 22.3344 207.629 20.7613 209.728C19.1883 211.653 17.4405 213.314 15.5179 214.714C13.4206 216.288 11.2358 217.425 8.9637 218.125C6.69157 219 4.24465 219.262 1.62295 218.912C1.62295 214.714 2.84641 210.865 5.29333 207.367C7.56547 203.868 9.8376 200.457 12.1097 197.133C14.2071 193.634 15.6053 190.136 16.3045 186.637C16.8288 182.963 15.3432 179.115 11.8476 175.091C11.6728 172.642 10.6241 170.28 8.70153 168.006C6.60418 165.557 4.6816 163.196 2.9338 160.921C1.18601 158.472 0.224717 156.111 0.0499371 153.836C-0.299622 151.562 1.18601 149.288 4.50682 147.014C2.9338 146.664 1.88512 146.052 1.36079 145.177C1.36079 144.303 1.62295 143.428 2.14729 142.553C2.49685 141.504 2.84641 140.541 3.19597 139.667C4.24465 139.667 5.38072 139.492 6.60418 139.142C7.65286 138.617 8.70153 138.267 9.75021 138.092C10.6241 137.742 11.498 137.742 12.3719 138.092C13.071 138.267 13.7701 139.054 14.4693 140.454C14.9936 141.504 15.4306 142.641 15.7801 143.865C16.1297 145.09 16.5666 146.314 17.091 147.539C18.4892 151.038 20.237 154.361 22.3344 157.51C24.4317 160.484 26.7912 163.283 29.4129 165.907L30.1994 166.694C30.1994 166.519 30.549 166.082 31.2481 165.382C31.9472 164.682 32.7338 163.983 33.6077 163.283C34.4815 162.408 35.2681 161.621 35.9672 160.921C36.6663 160.222 37.1906 159.697 37.5402 159.347C39.6376 157.423 41.6475 155.586 43.5701 153.836C45.4927 152.087 47.1531 150.338 48.5513 148.588C50.1243 146.664 51.2604 144.565 51.9595 142.291C52.8334 139.842 53.2704 137.043 53.2704 133.894C58.6885 130.22 64.0193 126.197 69.2627 121.823C74.5061 117.275 79.8369 112.902 85.2551 108.703C90.6732 104.505 96.2662 100.744 102.034 97.4199C107.976 94.0961 114.356 91.822 121.172 90.5974C122.745 93.3964 124.581 95.5831 126.678 97.1575C128.775 98.7319 130.785 100.306 132.708 101.881C134.805 103.455 136.64 105.379 138.213 107.654C139.961 109.928 141.185 113.077 141.884 117.1C143.282 124.622 143.282 131.707 141.884 138.355C140.66 145.002 138.825 151.912 136.378 159.085C134.98 163.283 133.669 167.569 132.446 171.942C131.397 176.316 130.873 180.777 130.873 185.325L132.708 185.85C134.281 183.75 136.029 182.438 137.951 181.914C140.049 181.389 142.146 181.039 144.243 180.864C146.341 180.689 148.351 180.427 150.273 180.077C152.37 179.552 154.118 178.24 155.517 176.141C157.789 177.015 159.886 177.103 161.809 176.403C163.906 175.528 165.916 174.391 167.838 172.992C169.761 171.592 171.684 170.105 173.606 168.531C175.529 166.957 177.539 165.907 179.636 165.382L179.374 163.283C182.52 161.184 185.229 159.697 187.501 158.822C189.773 157.947 191.871 157.073 193.793 156.198C195.716 155.323 197.638 154.099 199.561 152.524C201.484 150.95 203.668 148.326 206.115 144.652C206.989 144.303 207.95 144.215 208.999 144.39C210.223 144.39 211.096 144.827 211.621 145.702ZM120.124 119.724C119.25 119.374 118.288 119.112 117.24 118.937C116.366 118.587 115.492 118.15 114.618 117.625C113.045 116.575 111.559 115.788 110.161 115.263C108.763 114.738 107.103 114.913 105.18 115.788V116.313H104.918C96.004 123.135 87.702 130.658 80.0117 138.88C72.4961 146.927 64.5437 154.799 56.1542 162.496L53.7947 160.134C52.5712 161.709 51.8721 163.37 51.6974 165.12C51.6974 166.869 51.6974 168.531 51.6974 170.105C51.6974 171.68 51.5226 173.167 51.173 174.566C50.8235 175.966 49.7748 177.278 48.027 178.502L47.2405 179.027C47.9396 181.476 48.9009 183.051 50.1243 183.75C51.5226 184.275 52.9208 184.538 54.319 184.538C55.8921 184.363 57.3777 184.188 58.7759 184.013C60.1742 183.838 61.3102 184.1 62.1841 184.8C62.7085 185.15 63.058 185.675 63.2328 186.374C63.4076 187.074 63.495 187.686 63.495 188.211C64.3689 188.211 65.2428 188.211 66.1167 188.211C67.1654 188.211 68.214 188.124 69.2627 187.949C71.1853 187.599 73.1953 187.599 75.2926 187.949C77.5648 188.124 78.8756 189.436 79.2252 191.885C82.7208 190.485 86.3037 188.998 89.9741 187.424C93.6445 185.85 96.6157 183.313 98.8879 179.814L100.723 181.651C100.898 181.651 100.985 181.651 100.985 181.651C101.16 181.476 101.335 181.389 101.51 181.389C105.879 178.765 109.287 174.916 111.734 169.843C114.356 164.77 116.278 159.259 117.502 153.312C118.725 147.364 119.425 141.416 119.599 135.468C119.949 129.52 120.124 124.272 120.124 119.724Z" fill="#0015FF"/>
<path d="M262.101 15.2194C258.955 16.4439 257.207 18.2807 256.858 20.7298C256.508 23.1789 256.333 25.7155 256.333 28.3395C256.508 30.9635 256.421 33.4126 256.071 35.6868C255.722 37.9609 253.974 39.4479 250.828 40.1476C249.604 38.0484 248.031 36.1241 246.109 34.3748C244.361 32.4505 242.613 30.6136 240.865 28.8643C239.117 26.94 237.719 24.9283 236.671 22.829C235.622 20.7298 235.272 18.1933 235.622 15.2194L248.73 0C250.828 0.699741 252.488 1.57442 253.712 2.62403C254.935 3.67364 255.984 4.89818 256.858 6.29766C257.732 7.69715 258.518 9.1841 259.217 10.7585C260.091 12.158 261.052 13.6449 262.101 15.2194ZM312.962 132.776C313.137 136.624 312.787 139.336 311.913 140.91C311.214 142.485 310.34 143.797 309.292 144.846C308.243 145.721 307.282 146.771 306.408 147.995C305.709 149.045 305.359 150.969 305.359 153.768C301.339 158.141 298.106 161.378 295.659 163.477C293.212 165.401 290.852 167.063 288.58 168.463C286.308 169.687 283.774 171.087 280.977 172.661C278.181 174.235 274.336 176.684 269.442 180.008L267.607 180.271C267.082 182.895 266.121 184.382 264.723 184.732C263.499 185.256 262.014 185.519 260.266 185.519C258.693 185.519 257.12 185.694 255.547 186.044C253.974 186.393 252.663 187.88 251.614 190.504C248.643 191.379 246.109 191.729 244.011 191.554C241.914 191.379 239.205 191.292 235.884 191.292C234.835 191.292 233.437 191.204 231.689 191.029C230.116 190.854 228.805 190.942 227.757 191.292C227.058 191.467 226.271 191.904 225.397 192.604C224.698 193.478 223.912 194.178 223.038 194.703C222.164 195.228 221.29 195.403 220.416 195.228C219.542 195.228 218.756 194.528 218.057 193.128C215.959 193.653 214.037 193.653 212.289 193.128C210.541 192.604 208.881 191.729 207.308 190.504C205.735 189.28 204.249 187.793 202.851 186.044C201.627 184.469 200.404 182.982 199.18 181.583C198.306 180.533 197.345 179.571 196.296 178.696C195.248 177.822 194.286 176.947 193.413 176.072C191.49 174.148 190.092 171.699 189.218 168.725C188.344 165.751 187.82 162.69 187.645 159.541C187.47 156.392 187.557 153.243 187.907 150.094C188.257 146.946 188.781 144.147 189.48 141.697C191.053 140.123 192.189 138.374 192.888 136.449C193.413 134.35 193.85 132.251 194.199 130.152C194.723 128.053 195.248 126.041 195.772 124.116C196.471 122.017 197.607 120.18 199.18 118.606C199.18 116.332 199.53 114.233 200.229 112.308C201.103 110.384 202.152 108.547 203.375 106.798C204.773 105.049 206.259 103.474 207.832 102.075C209.58 100.5 211.153 99.0133 212.551 97.6138C213.949 97.6138 215.347 97.6138 216.746 97.6138C218.144 97.4389 219.455 97.5263 220.678 97.8762C221.902 98.0511 222.95 98.5759 223.824 99.4506C224.698 100.15 225.397 101.375 225.922 103.124C227.145 107.848 226.796 111.696 224.873 114.67C223.125 117.469 221.115 120.18 218.843 122.804C216.571 125.428 214.736 128.14 213.337 130.939C211.939 133.738 212.289 137.324 214.386 141.697C212.464 141.697 211.153 142.222 210.454 143.272C209.929 144.321 209.492 145.546 209.143 146.946C208.968 148.17 208.618 149.395 208.094 150.619C207.57 151.844 206.521 152.718 204.948 153.243C205.997 154.293 206.521 156.13 206.521 158.754C206.696 161.378 206.958 163.914 207.308 166.363C207.832 168.637 208.618 170.474 209.667 171.874C210.891 173.273 213.075 173.361 216.221 172.136C218.493 174.06 221.203 174.848 224.349 174.498C227.669 174.148 230.728 174.06 233.525 174.235C235.971 172.661 238.069 171.874 239.817 171.874C241.564 171.699 243.225 171.874 244.798 172.399C246.371 172.748 248.031 173.098 249.779 173.448C251.527 173.798 253.624 173.536 256.071 172.661C256.77 169.687 257.994 167.938 259.741 167.413C261.489 166.888 263.237 166.626 264.985 166.626C266.733 166.451 268.306 166.101 269.704 165.576C271.277 165.051 272.326 163.302 272.85 160.328C274.248 158.579 275.909 157.617 277.831 157.442C279.754 157.092 281.676 156.742 283.599 156.392C285.696 156.042 287.531 155.342 289.104 154.293C290.852 153.068 292.076 150.794 292.775 147.47C295.746 145.196 297.843 143.534 299.067 142.485C300.465 141.26 301.601 140.298 302.475 139.598C303.349 138.898 304.485 138.111 305.883 137.237C307.282 136.362 309.641 134.875 312.962 132.776Z" fill="#0015FF"/>
<path d="M474.728 135.719C472.806 138.168 471.32 140.88 470.272 143.853C469.223 146.827 467.912 149.626 466.339 152.25C464.941 154.874 463.106 157.061 460.833 158.81C458.736 160.56 455.765 161.347 451.92 161.172C449.123 162.222 447.026 164.146 445.628 166.945C444.404 169.569 443.181 172.28 441.957 175.079C440.734 177.703 439.161 179.89 437.238 181.639C435.316 183.214 432.432 183.389 428.587 182.164C423.693 184.263 419.236 187.062 415.216 190.561C411.371 193.885 407.7 197.384 404.205 201.057C402.981 202.282 401.583 203.856 400.01 205.781C398.437 207.53 396.951 208.842 395.553 209.717C394.33 210.416 393.106 210.504 391.883 209.979C390.659 209.454 389.523 208.929 388.475 208.405C387.426 207.705 386.377 207.355 385.329 207.355C384.455 207.355 383.668 208.142 382.969 209.717C384.192 212.166 384.455 213.828 383.756 214.702C383.056 215.752 381.92 216.539 380.347 217.064C378.774 217.589 377.114 218.026 375.366 218.376C373.618 218.726 372.22 219.338 371.171 220.213C369.074 222.137 367.588 224.499 366.715 227.298C365.841 230.097 365.054 232.895 364.355 235.694C363.656 238.493 362.607 241.117 361.209 243.567C359.985 246.191 357.888 248.202 354.917 249.602C356.665 250.826 357.364 252.051 357.014 253.275C356.839 254.5 356.402 255.724 355.703 256.949C355.004 258.348 354.48 259.66 354.13 260.885C353.956 262.11 354.655 263.334 356.228 264.559C353.606 267.882 351.247 271.469 349.149 275.317C347.227 279.166 345.304 283.014 343.381 286.863C341.459 290.886 339.361 294.735 337.089 298.409C334.992 302.257 332.283 305.668 328.962 308.642L329.749 314.94C327.127 314.24 325.466 314.328 324.767 315.202C324.243 316.077 323.981 317.302 323.981 318.876C323.981 320.451 323.981 322.025 323.981 323.599C324.156 325.349 323.631 326.661 322.408 327.535C321.884 328.235 321.272 328.76 320.573 329.11C320.048 329.46 319.524 329.897 319 330.422C313.407 334.62 309.562 339.956 307.464 346.428C307.115 347.478 306.852 348.528 306.678 349.577C306.503 350.627 306.241 351.764 305.891 352.988C305.017 355.438 303.619 357.974 301.696 360.598C299.774 363.222 297.676 365.934 295.404 368.733C293.132 371.532 290.947 374.418 288.85 377.392C286.753 380.541 285.092 383.69 283.869 386.838C281.072 386.489 278.888 386.751 277.315 387.626C275.567 388.675 274.169 389.987 273.12 391.562C272.071 393.311 271.197 395.148 270.498 397.072C269.799 398.996 268.925 400.658 267.877 402.058C266.653 403.632 265.167 404.769 263.42 405.469C261.497 406.344 259.05 406.344 256.079 405.469L244.281 416.228C242.184 415.003 240.174 414.741 238.251 415.44C236.154 416.14 234.144 417.102 232.221 418.327C230.124 419.551 228.114 420.513 226.192 421.213C224.094 421.913 221.909 421.65 219.637 420.426C218.414 421.825 217.365 422.525 216.491 422.525C215.617 422.7 214.569 422 213.345 420.426L209.413 424.624C207.315 422.875 204.781 421.213 201.81 419.639C198.664 418.239 195.78 416.577 193.158 414.653C190.537 412.904 188.439 410.804 186.866 408.355C185.293 406.081 185.031 403.107 186.08 399.434C185.73 398.384 185.206 397.247 184.507 396.022C183.633 394.798 182.934 393.486 182.409 392.086C181.885 390.862 181.535 389.55 181.361 388.15C181.186 386.926 181.535 385.789 182.409 384.739C180.836 381.765 180.312 378.704 180.836 375.555C181.186 372.581 181.798 369.607 182.671 366.633C183.545 363.659 184.244 360.686 184.769 357.712C185.293 354.738 184.769 351.764 183.196 348.79C185.293 347.216 186.866 345.204 187.915 342.755C188.789 340.306 189.663 337.769 190.537 335.145C191.236 332.521 192.022 329.984 192.896 327.535C193.77 325.086 195.256 323.075 197.353 321.5L197.091 317.302C205.305 308.555 214.044 300.508 223.308 293.161C232.396 285.988 242.708 280.653 254.244 277.154C256.516 273.131 259.487 270.157 263.158 268.232C266.828 266.483 270.586 264.821 274.431 263.247C278.101 261.847 281.509 260.01 284.655 257.736C287.801 255.637 290.161 252.226 291.734 247.503C292.608 249.427 293.482 250.214 294.356 249.864C295.23 249.689 296.103 249.252 296.977 248.552C298.026 248.027 298.987 247.59 299.861 247.24C300.735 247.065 301.609 247.852 302.483 249.602C304.231 244.354 307.027 240.155 310.872 237.006C314.892 233.858 319.262 231.059 323.981 228.61C328.875 226.335 333.768 224.061 338.662 221.787C343.556 219.688 347.838 217.064 351.509 213.915C355.354 210.766 358.238 206.918 360.16 202.369C362.083 197.646 362.52 191.611 361.471 184.263C363.044 183.214 364.093 181.902 364.617 180.327C365.141 178.578 365.491 176.829 365.666 175.079C366.015 173.33 366.452 171.756 366.977 170.356C367.501 168.957 368.637 167.995 370.385 167.47C369.161 165.545 367.676 164.671 365.928 164.846C364.18 165.021 362.345 165.545 360.422 166.42C358.675 167.295 357.014 168.169 355.441 169.044C353.868 169.919 352.557 170.094 351.509 169.569C350.984 172.018 349.848 173.767 348.1 174.817C346.527 175.867 344.78 176.829 342.857 177.703C340.935 178.403 338.925 179.19 336.827 180.065C334.73 180.94 333.069 182.339 331.846 184.263C330.273 183.564 328.787 183.914 327.389 185.313C326.166 186.538 324.855 187.937 323.457 189.512C322.233 190.911 320.835 191.961 319.262 192.66C317.689 193.36 315.854 192.66 313.756 190.561C312.708 193.36 310.96 195.197 308.513 196.072C306.241 196.946 303.706 197.384 300.91 197.384C298.113 197.384 295.23 197.209 292.258 196.859C289.462 196.509 286.928 196.596 284.655 197.121L280.199 192.66C279.849 193.535 279.325 194.235 278.625 194.76C277.752 195.284 276.878 195.372 276.004 195.022C274.606 192.048 273.295 188.899 272.071 185.576C270.673 182.077 269.799 178.666 269.45 175.342C268.925 171.843 269.187 168.519 270.236 165.371C271.285 162.047 273.382 159.16 276.528 156.711C281.422 147.79 287.801 140.792 295.667 135.719C296.54 136.419 297.502 136.681 298.55 136.506C299.599 136.156 300.648 135.719 301.696 135.194C302.92 134.494 304.056 133.795 305.105 133.095C306.153 132.22 307.115 131.695 307.989 131.521C308.513 129.596 309.474 127.759 310.872 126.01C312.445 124.261 314.106 122.686 315.854 121.287C317.776 119.887 319.699 118.663 321.621 117.613C323.719 116.389 325.641 115.339 327.389 114.464C330.71 112.89 333.769 110.966 336.565 108.692C339.536 106.242 342.508 103.968 345.479 101.869C348.45 99.5949 351.509 97.6706 354.655 96.0962C357.801 94.5218 361.384 93.7346 365.404 93.7346L370.123 97.933C367.151 99.6824 364.53 101.869 362.258 104.493C360.16 106.942 357.976 109.479 355.703 112.103C353.431 114.552 350.984 116.826 348.363 118.925C345.741 121.024 342.507 122.424 338.662 123.124C335.516 129.246 331.234 134.494 325.816 138.868C320.573 143.066 315.154 147.002 309.562 150.676C309.562 153.3 308.775 155.399 307.202 156.974C305.629 158.548 303.794 159.948 301.696 161.172C299.599 162.397 297.502 163.534 295.404 164.583C293.307 165.458 291.559 166.683 290.161 168.257C288.938 169.656 288.326 171.493 288.326 173.767C288.326 175.867 289.462 178.666 291.734 182.164C293.831 181.115 296.366 180.415 299.337 180.065C302.308 179.715 305.192 179.278 307.989 178.753C310.785 178.053 313.232 177.091 315.329 175.867C317.601 174.467 319.174 172.368 320.048 169.569C322.495 167.47 325.117 166.158 327.913 165.633C330.71 165.108 333.594 165.021 336.565 165.371C342.333 159.073 348.1 153.3 353.868 148.052C359.811 142.629 365.404 137.118 370.647 131.521C375.89 125.923 380.697 119.975 385.066 113.677C389.611 107.205 393.543 99.7698 396.864 91.3729C400.36 90.3233 403.506 90.7607 406.302 92.685C409.099 94.6092 411.109 97.0583 412.332 100.032C411.982 102.131 411.371 104.143 410.497 106.067C409.798 107.817 409.099 109.566 408.399 111.316C407.875 112.89 407.438 114.639 407.089 116.564C406.914 118.488 407.263 120.675 408.137 123.124C406.739 122.774 405.603 123.211 404.729 124.436C404.03 125.66 403.243 126.71 402.37 127.585C402.894 129.859 402.807 131.958 402.107 133.882C401.408 135.632 400.534 137.381 399.486 139.13C398.437 140.705 397.476 142.454 396.602 144.378C395.903 146.303 395.728 148.402 396.078 150.676C393.631 155.224 391.795 160.035 390.572 165.108C389.523 170.006 388.824 174.992 388.475 180.065L393.194 184.263C395.466 180.94 398.262 178.578 401.583 177.179C405.079 175.779 408.574 174.642 412.07 173.767C415.565 172.718 418.974 171.581 422.294 170.356C425.615 168.957 428.499 166.595 430.946 163.271C431.995 158.198 434.179 154.612 437.5 152.513C440.821 150.239 444.317 148.314 447.987 146.74C451.657 145.165 455.153 143.416 458.474 141.492C461.969 139.393 464.416 136.069 465.815 131.521H472.369C472.019 132.395 472.194 133.182 472.893 133.882C473.592 134.582 474.204 135.194 474.728 135.719ZM329.749 251.963C328.001 253.013 326.078 253.975 323.981 254.85C321.884 255.724 319.786 256.687 317.689 257.736C315.591 258.786 313.669 260.01 311.921 261.41C310.173 262.809 308.862 264.559 307.989 266.658C306.066 265.608 304.231 265.521 302.483 266.396C300.91 267.445 299.337 268.582 297.764 269.807C296.191 271.206 294.53 272.343 292.783 273.218C291.21 274.093 289.462 274.005 287.539 272.956C284.218 275.055 281.072 277.329 278.101 279.778C274.955 282.227 271.809 284.589 268.663 286.863C265.517 289.312 262.284 291.499 258.963 293.423C255.467 295.522 251.797 297.097 247.952 298.146C246.029 301.295 243.495 303.744 240.349 305.494C237.203 307.418 234.057 309.255 230.911 311.004C227.59 312.753 224.619 314.853 221.997 317.302C219.375 319.751 217.715 323.162 217.016 327.535C211.597 331.034 207.927 335.495 206.005 340.918C203.907 346.516 202.771 352.376 202.596 358.499C202.422 364.797 202.684 371.094 203.383 377.392C204.082 383.865 204.432 389.725 204.432 394.973C206.704 397.597 208.976 399.434 211.248 400.483C213.52 401.533 215.88 402.058 218.326 402.058C220.773 402.058 223.308 401.708 225.929 401.008C228.376 400.483 231.085 399.958 234.057 399.434C234.756 396.81 236.067 395.06 237.989 394.186C239.737 393.486 241.66 392.961 243.757 392.611C245.68 392.261 247.515 391.737 249.262 391.037C250.836 390.512 251.709 389.113 251.884 386.838L254.244 388.938C254.419 386.139 255.205 383.777 256.603 381.853C258.002 380.103 259.662 378.441 261.585 376.867C263.507 375.293 265.604 373.806 267.877 372.406C269.974 371.007 271.809 369.432 273.382 367.683C273.033 364.359 273.644 361.56 275.217 359.286C276.79 357.012 278.538 354.913 280.461 352.988C282.383 351.064 284.131 348.965 285.704 346.691C287.102 344.417 287.627 341.53 287.277 338.031C289.025 337.332 290.248 336.195 290.948 334.62C291.647 333.046 292.346 331.559 293.045 330.159C293.744 328.76 294.618 327.71 295.667 327.011C296.89 326.311 298.725 326.486 301.172 327.535C298.725 325.611 297.677 324.124 298.026 323.075C298.55 322.025 299.424 321.063 300.648 320.188C301.871 319.488 303.007 318.614 304.056 317.564C305.105 316.514 305.105 314.94 304.056 312.841C308.251 311.091 310.96 308.555 312.183 305.231C313.407 301.907 314.281 298.321 314.805 294.473C315.504 290.799 316.465 287.125 317.689 283.452C318.912 279.953 321.621 277.154 325.816 275.055C325.466 271.906 325.991 269.107 327.389 266.658C328.962 264.384 330.448 262.197 331.846 260.098C333.419 257.999 334.468 255.812 334.992 253.538C335.691 251.264 335.079 248.552 333.157 245.403L329.749 251.963Z" fill="#0015FF"/>
<path d="M599.711 199.163C599.886 201.262 599.537 202.836 598.663 203.886C597.789 204.936 596.565 205.723 594.992 206.248C593.594 206.772 592.021 207.21 590.273 207.56C588.526 207.734 587.04 208.172 585.816 208.872C580.748 208.347 575.854 207.647 571.135 206.772C566.416 205.723 562.046 204.236 558.027 202.311C554.007 200.212 550.336 197.501 547.015 194.177C543.869 190.853 541.16 186.655 538.888 181.582C541.16 177.908 541.947 173.885 541.248 169.511C540.549 164.963 539.849 160.589 539.15 156.391C538.626 152.193 538.713 148.344 539.412 144.845C540.286 141.347 543.345 138.548 548.588 136.448C548.239 134.524 548.239 132.425 548.588 130.151C549.113 127.877 548.501 125.952 546.753 124.378C540.636 126.477 535.305 129.451 530.761 133.3C526.217 137.148 521.847 141.347 517.652 145.895C513.632 150.443 509.525 155.079 505.33 159.802C501.311 164.351 496.854 168.374 491.96 171.873C489.688 172.048 487.241 171.96 484.619 171.61C482.172 171.086 480.075 171.785 478.327 173.71C478.502 174.934 478.939 175.984 479.638 176.858C480.337 177.733 480.861 178.608 481.211 179.482C481.735 180.357 481.997 181.319 481.997 182.369C481.997 183.244 481.386 184.293 480.162 185.518C478.414 187.267 476.492 188.754 474.394 189.979C472.472 191.028 470.549 192.253 468.627 193.652C466.879 194.877 465.393 196.364 464.17 198.113C462.946 199.862 462.335 202.224 462.335 205.198C461.286 204.673 460.325 204.586 459.451 204.936C458.577 205.11 457.79 205.548 457.091 206.248C456.217 206.947 455.431 207.734 454.732 208.609C454.033 209.484 453.333 210.184 452.634 210.708C452.285 211.583 452.372 212.283 452.897 212.808C453.421 213.507 454.033 214.207 454.732 214.907C454.033 216.831 453.159 217.968 452.11 218.318C450.887 218.843 449.663 218.93 448.44 218.58C447.041 218.231 445.731 217.618 444.507 216.744C443.109 216.044 441.885 215.432 440.837 214.907C440.312 212.633 439.963 210.009 439.788 207.035C439.613 204.061 439.701 201.174 440.05 198.375C440.4 195.402 441.099 192.603 442.148 189.979C443.196 187.355 444.769 185.168 446.867 183.419C447.566 182.894 448.003 182.631 448.177 182.631C448.352 182.456 448.44 182.369 448.44 182.369C448.44 182.369 448.527 182.369 448.702 182.369C448.877 182.194 449.226 181.844 449.75 181.319C451.149 179.745 452.11 178.083 452.634 176.334C453.159 174.409 453.596 172.485 453.945 170.561C454.295 168.636 454.819 166.8 455.518 165.05C456.043 163.126 457.091 161.464 458.664 160.065C457.965 157.266 457.965 154.817 458.664 152.717C459.538 150.443 460.587 148.344 461.81 146.42C463.209 144.321 464.519 142.309 465.743 140.384C467.141 138.285 468.015 136.011 468.365 133.562C468.539 132.687 468.539 131.9 468.365 131.2C468.365 130.326 468.365 129.451 468.365 128.576C468.015 125.777 468.277 123.678 469.151 122.279C470.2 120.704 471.423 119.48 472.821 118.605C474.394 117.555 475.967 116.506 477.54 115.456C479.288 114.407 480.774 112.832 481.997 110.733C487.066 113.182 490.037 116.506 490.911 120.704C491.96 124.728 492.309 129.276 491.96 134.349C488.989 136.273 486.716 138.985 485.143 142.484C483.57 145.807 482.522 149.044 481.997 152.193C482.347 153.242 482.784 153.854 483.308 154.029C484.007 154.029 484.706 153.942 485.406 153.767C486.279 153.417 487.066 153.067 487.765 152.717C488.464 152.368 489.163 152.193 489.862 152.193C496.154 147.819 502.359 142.921 508.476 137.498C514.769 132.075 519.662 125.865 523.158 118.867C528.227 116.418 533.033 113.619 537.577 110.471C542.122 107.147 547.103 104.698 552.521 103.123L558.551 97.088C559.425 98.4875 560.473 98.8374 561.697 98.1376C562.92 97.263 564.144 96.3008 565.367 95.2512C566.591 94.2016 567.727 93.5893 568.775 93.4144C569.999 93.2394 571.135 94.464 572.184 97.088C573.931 101.636 574.368 106.097 573.495 110.471C572.621 114.669 571.222 118.867 569.3 123.066C567.552 127.089 565.717 131.2 563.794 135.399C561.872 139.597 560.736 143.883 560.386 148.257C560.386 149.306 560.386 150.443 560.386 151.668C560.386 152.717 560.299 153.854 560.124 155.079C559.774 158.753 559.25 162.776 558.551 167.15C558.027 171.348 558.289 175.197 559.337 178.695C560.211 181.844 562.046 184.643 564.843 187.092C567.639 189.541 570.086 191.99 572.184 194.439C573.407 194.264 574.631 194.352 575.854 194.702C577.078 195.052 578.214 195.402 579.262 195.751C580.486 196.101 581.622 196.276 582.67 196.276C583.719 196.101 584.768 195.489 585.816 194.439C587.04 193.915 588.176 194.002 589.225 194.702C590.448 195.227 591.584 195.926 592.633 196.801C593.682 197.676 594.73 198.463 595.779 199.163C597.002 199.687 598.313 199.687 599.711 199.163Z" fill="#0015FF"/>
<path d="M403.065 267.475C402.87 267.67 402.718 267.821 402.61 267.93C402.523 268.038 402.437 268.146 402.35 268.255C402.285 268.341 402.198 268.439 402.09 268.547C402.003 268.656 401.862 268.818 401.667 269.035C401.494 269.208 401.331 269.393 401.18 269.588C401.028 269.783 400.854 269.956 400.659 270.108C400.399 270.043 400.193 270.075 400.042 270.205C399.912 270.335 399.782 270.487 399.652 270.66C399.543 270.812 399.435 270.964 399.327 271.115C399.24 271.245 399.121 271.3 398.969 271.278C398.449 271.56 397.929 271.809 397.409 272.026C396.888 272.221 396.39 272.513 395.913 272.903L395.653 272.643L392.272 274.269C392.164 274.312 392.056 274.377 391.947 274.464C391.839 274.55 391.731 274.626 391.622 274.691C391.145 274.951 390.647 275.19 390.127 275.407C389.628 275.602 389.13 275.786 388.631 275.959L388.209 276.089C388.382 276.523 388.382 276.826 388.209 276.999C388.035 277.173 387.786 277.303 387.461 277.39C387.136 277.455 386.778 277.498 386.388 277.52C385.998 277.541 385.695 277.617 385.478 277.747C385.218 277.704 384.947 277.682 384.665 277.682C384.405 277.704 384.134 277.736 383.853 277.78C383.549 277.823 383.268 277.845 383.007 277.845C382.747 277.845 382.466 277.812 382.162 277.747H382.097C381.729 277.921 381.404 277.953 381.122 277.845C380.862 277.758 380.624 277.606 380.407 277.39C380.19 277.151 379.984 276.88 379.789 276.577C379.616 276.252 379.432 275.959 379.237 275.699C379.106 275.526 378.944 275.277 378.749 274.951C378.554 274.626 378.391 274.28 378.261 273.911C378.11 273.543 378.023 273.174 378.001 272.806C377.958 272.416 378.034 272.08 378.229 271.798C378.424 271.516 378.586 271.213 378.716 270.888C378.825 270.563 378.879 270.184 378.879 269.75C378.879 269.598 378.879 269.458 378.879 269.327C378.857 269.197 378.846 269.057 378.846 268.905C378.955 268.905 379.074 268.916 379.204 268.937C379.334 268.937 379.453 268.937 379.562 268.937C379.692 268.916 379.789 268.872 379.854 268.807C379.941 268.721 379.984 268.58 379.984 268.385C379.984 268.276 379.941 268.19 379.854 268.125C379.789 268.06 379.746 267.995 379.724 267.93C379.854 267.735 379.973 267.583 380.082 267.475C380.212 267.344 380.32 267.225 380.407 267.117C380.493 266.987 380.559 266.846 380.602 266.694C380.645 266.521 380.634 266.293 380.569 266.012C380.829 265.557 381.133 265.156 381.48 264.809C381.848 264.44 382.227 264.105 382.617 263.801C383.007 263.476 383.408 263.162 383.82 262.858C384.232 262.555 384.622 262.23 384.99 261.883C385.402 262.056 385.727 262.056 385.966 261.883C386.226 261.71 386.453 261.526 386.648 261.33C386.843 261.114 387.038 260.94 387.234 260.81C387.429 260.68 387.689 260.734 388.014 260.973L388.079 261.038C388.664 260.453 389.249 260.193 389.834 260.258C390.441 260.323 390.95 260.518 391.362 260.843C391.796 261.168 392.077 261.547 392.207 261.981C392.337 262.392 392.218 262.674 391.85 262.826C392.088 263.064 392.207 263.346 392.207 263.671C392.207 263.996 392.121 264.278 391.947 264.516C391.752 264.776 391.579 265.047 391.427 265.329C391.297 265.589 391.156 265.871 391.004 266.174C390.788 266.673 390.549 267.149 390.289 267.605C390.029 268.038 389.661 268.406 389.184 268.71C388.794 268.601 388.523 268.645 388.371 268.84C388.241 269.035 388.144 269.252 388.079 269.49C388.014 269.707 387.938 269.88 387.851 270.01C387.765 270.14 387.58 270.097 387.299 269.88L387.234 269.815L387.169 269.88C386.995 270.054 386.854 270.249 386.746 270.465C386.659 270.682 386.529 270.845 386.356 270.953C386.161 270.888 385.955 270.834 385.738 270.79C385.521 270.747 385.316 270.704 385.121 270.66C385.121 271.115 385.034 271.473 384.86 271.733C384.687 271.993 384.46 272.21 384.178 272.383C383.918 272.535 383.614 272.665 383.268 272.773C382.921 272.86 382.574 272.979 382.227 273.131C381.902 273.261 381.588 273.434 381.285 273.651C381.003 273.846 380.775 274.128 380.602 274.496C380.819 274.735 381.089 274.876 381.415 274.919C381.74 274.941 382.076 274.941 382.422 274.919C382.769 274.876 383.105 274.854 383.43 274.854C383.777 274.854 384.08 274.941 384.34 275.114L384.373 275.146L384.405 275.114C384.925 275.049 385.424 274.93 385.901 274.756C386.399 274.561 386.876 274.366 387.331 274.171C387.808 273.955 388.285 273.759 388.761 273.586C389.26 273.391 389.769 273.25 390.289 273.163C390.398 273.337 390.539 273.434 390.712 273.456C390.907 273.478 391.091 273.467 391.265 273.424L391.297 273.359C391.34 273.207 391.384 273.077 391.427 272.968C391.47 272.838 391.535 272.698 391.622 272.546C391.774 272.307 391.958 272.123 392.175 271.993C392.392 271.863 392.619 271.766 392.857 271.701C393.118 271.636 393.388 271.592 393.67 271.571C393.952 271.549 394.234 271.516 394.515 271.473H394.58L394.613 271.376C394.7 271.115 394.808 270.942 394.938 270.855C395.09 270.747 395.241 270.671 395.393 270.628C395.566 270.584 395.74 270.552 395.913 270.53C396.108 270.509 396.293 270.444 396.466 270.335C396.856 270.465 397.181 270.422 397.441 270.205C397.701 269.988 397.95 269.761 398.189 269.523L398.449 269.848L398.546 269.718C398.871 269.414 399.11 269.187 399.262 269.035C399.435 268.883 399.598 268.753 399.749 268.645C399.901 268.515 400.074 268.396 400.269 268.287C400.486 268.157 400.779 267.973 401.147 267.735C401.45 267.54 401.743 267.344 402.025 267.149C402.328 266.954 402.621 266.738 402.903 266.499C403.011 266.543 403.065 266.629 403.065 266.759C403.065 266.868 403.065 266.976 403.065 267.084C403.043 267.128 403.022 267.193 403 267.279C403 267.366 403.022 267.431 403.065 267.475ZM389.607 263.411C389.585 263.389 389.563 263.378 389.542 263.378C389.542 263.378 389.531 263.368 389.509 263.346C389.054 263.108 388.675 262.999 388.371 263.021C388.068 263.021 387.786 263.108 387.526 263.281C387.288 263.433 387.06 263.639 386.843 263.899C386.648 264.137 386.432 264.365 386.193 264.581C385.977 264.776 385.716 264.928 385.413 265.036C385.11 265.145 384.741 265.134 384.308 265.004C384.243 265.351 384.178 265.697 384.113 266.044C384.069 266.369 384.037 266.705 384.015 267.052C383.647 267.182 383.354 267.366 383.138 267.605C382.942 267.843 382.769 268.103 382.617 268.385C382.487 268.666 382.357 268.97 382.227 269.295C382.119 269.598 381.967 269.891 381.772 270.173L381.902 270.335C381.989 270.292 382.086 270.324 382.195 270.433C382.303 270.541 382.379 270.617 382.422 270.66C382.661 270.314 382.975 270.021 383.365 269.783C383.777 269.544 384.189 269.327 384.6 269.132C385.034 268.916 385.446 268.688 385.836 268.45C386.226 268.211 386.518 267.897 386.713 267.507C387.407 267.312 387.927 266.922 388.274 266.337C388.621 265.752 388.913 265.145 389.152 264.516C389.195 264.386 389.271 264.202 389.379 263.964C389.509 263.704 389.585 263.519 389.607 263.411Z" fill="#0015FF"/>
<path d="M423.058 264.939C422.971 265.394 422.787 265.817 422.505 266.207C422.245 266.597 421.92 266.944 421.53 267.247C421.161 267.55 420.76 267.81 420.327 268.027C419.893 268.222 419.46 268.363 419.027 268.45C418.376 268.732 417.77 268.948 417.206 269.1C416.664 269.23 416.112 269.317 415.548 269.36C414.985 269.403 414.4 269.414 413.793 269.393C413.186 269.371 412.503 269.338 411.745 269.295C411.55 269.36 411.409 269.468 411.322 269.62C411.257 269.772 411.214 269.934 411.192 270.108C411.192 270.281 411.203 270.465 411.225 270.66C411.246 270.834 411.246 270.996 411.225 271.148C411.03 271.126 410.867 271.191 410.737 271.343C410.629 271.495 410.52 271.625 410.412 271.733C410.434 272.188 410.369 272.535 410.217 272.773C410.065 272.99 409.881 273.185 409.664 273.359C409.469 273.51 409.242 273.684 408.982 273.879C408.743 274.052 408.537 274.312 408.364 274.659C408.277 274.789 408.223 274.919 408.201 275.049C408.18 275.157 408.147 275.298 408.104 275.472C408.039 275.775 407.887 275.959 407.649 276.024C407.432 276.089 407.204 276.143 406.966 276.187C406.728 276.208 406.511 276.273 406.316 276.382C406.121 276.468 406.012 276.696 405.991 277.064C405.514 277.194 405.048 277.4 404.593 277.682C404.138 277.986 403.683 278.278 403.228 278.56C402.772 278.842 402.307 279.047 401.83 279.177C401.375 279.329 400.887 279.318 400.367 279.145C400.259 279.102 400.107 279.037 399.912 278.95C399.738 278.863 399.608 278.777 399.522 278.69C399.478 278.647 399.413 278.56 399.327 278.43C399.262 278.321 399.207 278.246 399.164 278.202C398.947 277.855 398.785 277.476 398.676 277.064C398.568 276.653 398.492 276.241 398.449 275.829C398.406 275.396 398.395 274.962 398.416 274.529C398.416 274.095 398.416 273.684 398.416 273.294C398.525 273.337 398.633 273.326 398.741 273.261C398.828 273.174 398.904 273.098 398.969 273.033L398.676 272.221C398.806 272.264 398.915 272.253 399.002 272.188C399.088 272.123 399.164 272.047 399.229 271.961C398.904 271.787 398.741 271.614 398.741 271.441C398.72 271.245 398.763 271.05 398.871 270.855C398.98 270.639 399.11 270.422 399.262 270.205C399.435 269.988 399.522 269.761 399.522 269.523C399.543 269.002 399.598 268.515 399.684 268.06C399.793 267.583 399.912 267.117 400.042 266.662C400.172 266.207 400.313 265.752 400.464 265.296C400.616 264.841 400.746 264.365 400.854 263.866C401.223 263.823 401.559 263.66 401.862 263.378C402.166 263.075 402.469 262.793 402.772 262.533C403.076 262.273 403.39 262.111 403.715 262.046C404.062 261.981 404.452 262.143 404.886 262.533C404.972 263.053 404.929 263.53 404.755 263.964C404.604 264.397 404.42 264.82 404.203 265.231C403.986 265.643 403.791 266.066 403.618 266.499C403.466 266.933 403.444 267.41 403.553 267.93C402.729 268.298 402.187 268.829 401.927 269.523C401.689 270.216 401.526 270.964 401.44 271.766C401.418 272.004 401.385 272.264 401.342 272.546C401.299 272.806 401.223 273.055 401.115 273.294C401.245 273.597 401.266 273.9 401.18 274.204C401.093 274.485 401.006 274.767 400.92 275.049C400.854 275.331 400.833 275.591 400.854 275.829C400.876 276.068 401.05 276.295 401.375 276.512C402.805 276.1 404.029 275.493 405.048 274.691C406.067 273.889 406.999 272.893 407.844 271.701C408.321 271.029 408.754 270.368 409.144 269.718C409.556 269.046 409.892 268.363 410.152 267.67C410.412 266.976 410.585 266.25 410.672 265.492C410.759 264.733 410.715 263.931 410.542 263.086C410.759 263.064 410.954 262.956 411.127 262.761C411.3 262.566 411.474 262.403 411.647 262.273C411.821 262.122 411.994 262.046 412.167 262.046C412.341 262.046 412.525 262.208 412.72 262.533C413.045 262.685 413.208 262.869 413.208 263.086C413.229 263.281 413.197 263.487 413.11 263.704C413.045 263.92 412.991 264.137 412.948 264.354C412.904 264.57 413.002 264.776 413.24 264.971C413.175 265.015 413.099 265.112 413.013 265.264C412.926 265.394 412.85 265.557 412.785 265.752C412.72 265.925 412.666 266.098 412.622 266.272C412.579 266.423 412.568 266.532 412.59 266.597C412.785 266.944 413.002 267.128 413.24 267.149C413.479 267.149 413.728 267.106 413.988 267.019C414.248 266.933 414.508 266.879 414.768 266.857C415.05 266.814 415.31 266.911 415.548 267.149C416.09 267.084 416.578 267.019 417.011 266.954C417.445 266.868 417.856 266.781 418.246 266.694C418.658 266.608 419.07 266.51 419.482 266.402C419.915 266.272 420.403 266.142 420.945 266.012C421.226 265.665 421.541 265.427 421.887 265.296C422.256 265.166 422.646 265.047 423.058 264.939Z" fill="#0015FF"/>
<path d="M442.172 267.475C441.977 267.67 441.826 267.821 441.717 267.93C441.631 268.038 441.544 268.146 441.457 268.255C441.392 268.341 441.306 268.439 441.197 268.547C441.111 268.656 440.97 268.818 440.775 269.035C440.601 269.208 440.439 269.393 440.287 269.588C440.135 269.783 439.962 269.956 439.767 270.108C439.507 270.043 439.301 270.075 439.149 270.205C439.019 270.335 438.889 270.487 438.759 270.66C438.651 270.812 438.542 270.964 438.434 271.115C438.347 271.245 438.228 271.3 438.076 271.278C437.556 271.56 437.036 271.809 436.516 272.026C435.996 272.221 435.497 272.513 435.021 272.903L434.761 272.643L431.38 274.269C431.271 274.312 431.163 274.377 431.055 274.464C430.946 274.55 430.838 274.626 430.73 274.691C430.253 274.951 429.754 275.19 429.234 275.407C428.736 275.602 428.237 275.786 427.739 275.959L427.316 276.089C427.49 276.523 427.49 276.826 427.316 276.999C427.143 277.173 426.894 277.303 426.569 277.39C426.243 277.455 425.886 277.498 425.496 277.52C425.106 277.541 424.802 277.617 424.586 277.747C424.325 277.704 424.055 277.682 423.773 277.682C423.513 277.704 423.242 277.736 422.96 277.78C422.657 277.823 422.375 277.845 422.115 277.845C421.855 277.845 421.573 277.812 421.27 277.747H421.205C420.836 277.921 420.511 277.953 420.229 277.845C419.969 277.758 419.731 277.606 419.514 277.39C419.298 277.151 419.092 276.88 418.897 276.577C418.723 276.252 418.539 275.959 418.344 275.699C418.214 275.526 418.051 275.277 417.856 274.951C417.661 274.626 417.499 274.28 417.369 273.911C417.217 273.543 417.13 273.174 417.109 272.806C417.065 272.416 417.141 272.08 417.336 271.798C417.531 271.516 417.694 271.213 417.824 270.888C417.932 270.563 417.986 270.184 417.986 269.75C417.986 269.598 417.986 269.458 417.986 269.327C417.965 269.197 417.954 269.057 417.954 268.905C418.062 268.905 418.181 268.916 418.311 268.937C418.441 268.937 418.561 268.937 418.669 268.937C418.799 268.916 418.897 268.872 418.962 268.807C419.048 268.721 419.092 268.58 419.092 268.385C419.092 268.276 419.048 268.19 418.962 268.125C418.897 268.06 418.853 267.995 418.832 267.93C418.962 267.735 419.081 267.583 419.189 267.475C419.319 267.344 419.428 267.225 419.514 267.117C419.601 266.987 419.666 266.846 419.709 266.694C419.753 266.521 419.742 266.293 419.677 266.012C419.937 265.557 420.24 265.156 420.587 264.809C420.955 264.44 421.335 264.105 421.725 263.801C422.115 263.476 422.516 263.162 422.928 262.858C423.339 262.555 423.729 262.23 424.098 261.883C424.51 262.056 424.835 262.056 425.073 261.883C425.333 261.71 425.561 261.526 425.756 261.33C425.951 261.114 426.146 260.94 426.341 260.81C426.536 260.68 426.796 260.734 427.121 260.973L427.186 261.038C427.771 260.453 428.356 260.193 428.942 260.258C429.548 260.323 430.058 260.518 430.47 260.843C430.903 261.168 431.185 261.547 431.315 261.981C431.445 262.392 431.326 262.674 430.957 262.826C431.196 263.064 431.315 263.346 431.315 263.671C431.315 263.996 431.228 264.278 431.055 264.516C430.86 264.776 430.686 265.047 430.535 265.329C430.404 265.589 430.264 265.871 430.112 266.174C429.895 266.673 429.657 267.149 429.397 267.605C429.137 268.038 428.768 268.406 428.291 268.71C427.901 268.601 427.63 268.645 427.479 268.84C427.349 269.035 427.251 269.252 427.186 269.49C427.121 269.707 427.045 269.88 426.959 270.01C426.872 270.14 426.688 270.097 426.406 269.88L426.341 269.815L426.276 269.88C426.103 270.054 425.962 270.249 425.853 270.465C425.767 270.682 425.637 270.845 425.463 270.953C425.268 270.888 425.062 270.834 424.846 270.79C424.629 270.747 424.423 270.704 424.228 270.66C424.228 271.115 424.141 271.473 423.968 271.733C423.794 271.993 423.567 272.21 423.285 272.383C423.025 272.535 422.722 272.665 422.375 272.773C422.028 272.86 421.681 272.979 421.335 273.131C421.01 273.261 420.695 273.434 420.392 273.651C420.11 273.846 419.883 274.128 419.709 274.496C419.926 274.735 420.197 274.876 420.522 274.919C420.847 274.941 421.183 274.941 421.53 274.919C421.876 274.876 422.212 274.854 422.537 274.854C422.884 274.854 423.188 274.941 423.448 275.114L423.48 275.146L423.513 275.114C424.033 275.049 424.531 274.93 425.008 274.756C425.507 274.561 425.983 274.366 426.438 274.171C426.915 273.955 427.392 273.759 427.869 273.586C428.367 273.391 428.877 273.25 429.397 273.163C429.505 273.337 429.646 273.434 429.819 273.456C430.014 273.478 430.199 273.467 430.372 273.424L430.404 273.359C430.448 273.207 430.491 273.077 430.535 272.968C430.578 272.838 430.643 272.698 430.73 272.546C430.881 272.307 431.065 272.123 431.282 271.993C431.499 271.863 431.726 271.766 431.965 271.701C432.225 271.636 432.496 271.592 432.778 271.571C433.059 271.549 433.341 271.516 433.623 271.473H433.688L433.72 271.376C433.807 271.115 433.915 270.942 434.045 270.855C434.197 270.747 434.349 270.671 434.501 270.628C434.674 270.584 434.847 270.552 435.021 270.53C435.216 270.509 435.4 270.444 435.573 270.335C435.963 270.465 436.288 270.422 436.549 270.205C436.809 269.988 437.058 269.761 437.296 269.523L437.556 269.848L437.654 269.718C437.979 269.414 438.217 269.187 438.369 269.035C438.542 268.883 438.705 268.753 438.857 268.645C439.008 268.515 439.182 268.396 439.377 268.287C439.593 268.157 439.886 267.973 440.254 267.735C440.558 267.54 440.85 267.344 441.132 267.149C441.436 266.954 441.728 266.738 442.01 266.499C442.118 266.543 442.172 266.629 442.172 266.759C442.172 266.868 442.172 266.976 442.172 267.084C442.151 267.128 442.129 267.193 442.107 267.279C442.107 267.366 442.129 267.431 442.172 267.475ZM428.714 263.411C428.692 263.389 428.671 263.378 428.649 263.378C428.649 263.378 428.638 263.368 428.617 263.346C428.161 263.108 427.782 262.999 427.479 263.021C427.175 263.021 426.894 263.108 426.634 263.281C426.395 263.433 426.168 263.639 425.951 263.899C425.756 264.137 425.539 264.365 425.301 264.581C425.084 264.776 424.824 264.928 424.521 265.036C424.217 265.145 423.849 265.134 423.415 265.004C423.35 265.351 423.285 265.697 423.22 266.044C423.177 266.369 423.144 266.705 423.123 267.052C422.754 267.182 422.462 267.366 422.245 267.605C422.05 267.843 421.876 268.103 421.725 268.385C421.595 268.666 421.465 268.97 421.335 269.295C421.226 269.598 421.075 269.891 420.88 270.173L421.01 270.335C421.096 270.292 421.194 270.324 421.302 270.433C421.411 270.541 421.486 270.617 421.53 270.66C421.768 270.314 422.082 270.021 422.472 269.783C422.884 269.544 423.296 269.327 423.708 269.132C424.141 268.916 424.553 268.688 424.943 268.45C425.333 268.211 425.626 267.897 425.821 267.507C426.514 267.312 427.034 266.922 427.381 266.337C427.728 265.752 428.021 265.145 428.259 264.516C428.302 264.386 428.378 264.202 428.487 263.964C428.617 263.704 428.692 263.519 428.714 263.411Z" fill="#0015FF"/>
<path d="M460.962 270.985C460.464 271.224 460.128 271.516 459.954 271.863C459.781 272.21 459.64 272.567 459.532 272.936C459.445 273.304 459.326 273.662 459.174 274.009C459.044 274.334 458.752 274.605 458.297 274.821C458.188 275.211 457.971 275.482 457.646 275.634C457.343 275.786 457.018 275.927 456.671 276.057C456.324 276.165 456.01 276.317 455.728 276.512C455.468 276.707 455.338 277.043 455.338 277.52C454.905 277.758 454.428 277.975 453.908 278.17C453.409 278.365 452.879 278.506 452.315 278.592C451.773 278.701 451.231 278.744 450.69 278.722C450.148 278.701 449.639 278.592 449.162 278.397C448.837 278.246 448.522 278.051 448.219 277.812C448.111 277.725 448.002 277.65 447.894 277.585C447.807 277.541 447.71 277.465 447.601 277.357C447.341 277.097 447.125 276.794 446.951 276.447C446.778 276.1 446.637 275.732 446.529 275.342C446.42 274.951 446.334 274.561 446.269 274.171C446.204 273.781 446.149 273.413 446.106 273.066L447.309 269.815C446.68 269.317 446.171 268.742 445.781 268.092C445.391 267.42 444.914 266.803 444.351 266.239C444.242 266.391 444.101 266.521 443.928 266.629C443.755 266.738 443.69 266.911 443.733 267.149L444.058 267.442C443.343 268.222 442.617 269.111 441.88 270.108C441.165 271.083 440.601 272.069 440.189 273.066C439.713 273.044 439.377 273.163 439.182 273.424C438.987 273.662 438.824 273.944 438.694 274.269C438.564 274.572 438.402 274.854 438.206 275.114C438.011 275.374 437.686 275.482 437.231 275.439C437.123 275.677 437.015 275.938 436.906 276.219C436.798 276.479 436.668 276.729 436.516 276.967C436.364 277.205 436.18 277.4 435.963 277.552C435.747 277.725 435.476 277.812 435.151 277.812C434.977 277.639 434.88 277.455 434.858 277.26C434.836 277.064 434.858 276.869 434.923 276.674C434.988 276.458 435.075 276.252 435.183 276.057C435.292 275.84 435.367 275.634 435.411 275.439C435.584 274.811 435.898 274.247 436.354 273.749C436.809 273.228 437.264 272.719 437.719 272.221C438.174 271.701 438.564 271.159 438.889 270.595C439.214 270.032 439.344 269.371 439.279 268.612C439.561 268.591 439.843 268.536 440.124 268.45C440.428 268.341 440.699 268.211 440.937 268.06C441.197 267.886 441.392 267.68 441.522 267.442C441.674 267.182 441.728 266.879 441.685 266.532C441.511 266.445 441.414 266.326 441.392 266.174C441.371 266.001 441.371 265.827 441.392 265.654C441.869 265.502 442.248 265.242 442.53 264.874C442.833 264.484 443.104 264.072 443.343 263.639C443.581 263.205 443.809 262.772 444.025 262.338C444.264 261.883 444.567 261.493 444.936 261.168C445.239 261.341 445.542 261.493 445.846 261.623C446.149 261.731 446.442 261.883 446.724 262.078C446.529 262.338 446.409 262.587 446.366 262.826C446.323 263.064 446.301 263.313 446.301 263.574C446.301 263.812 446.301 264.05 446.301 264.289C446.301 264.527 446.236 264.776 446.106 265.036C446.453 265.34 446.745 265.697 446.984 266.109C447.222 266.521 447.526 266.868 447.894 267.149C448.154 266.954 448.447 266.857 448.772 266.857C449.097 266.835 449.422 266.835 449.747 266.857C450.094 266.857 450.419 266.835 450.722 266.792C451.026 266.727 451.275 266.543 451.47 266.239C451.557 266.326 451.687 266.369 451.86 266.369C452.033 266.369 452.207 266.369 452.38 266.369C452.553 266.369 452.705 266.402 452.835 266.467C452.965 266.51 453.041 266.608 453.063 266.759C453.084 266.933 453.074 267.052 453.03 267.117C453.009 267.182 452.976 267.29 452.933 267.442C452.889 267.615 452.879 267.702 452.9 267.702C452.922 267.702 452.9 267.778 452.835 267.93C452.727 268.211 452.543 268.45 452.283 268.645C452.044 268.84 451.795 269.035 451.535 269.23C451.296 269.403 451.069 269.609 450.852 269.848C450.657 270.064 450.56 270.346 450.56 270.693C450.083 270.866 449.747 271.126 449.552 271.473C449.357 271.798 449.227 272.177 449.162 272.611C449.097 273.023 449.053 273.456 449.032 273.911C449.01 274.345 448.934 274.746 448.804 275.114L449.097 275.439L449.357 275.114C449.66 275.547 450.018 275.818 450.43 275.927C450.863 276.035 451.307 276.068 451.762 276.024C451.979 275.699 452.228 275.439 452.51 275.244C452.814 275.049 453.128 274.886 453.453 274.756C453.8 274.626 454.146 274.507 454.493 274.399C454.862 274.29 455.208 274.16 455.533 274.009C455.793 273.879 456.01 273.738 456.184 273.586C456.379 273.434 456.584 273.261 456.801 273.066C457.451 272.459 458.091 271.863 458.719 271.278C459.369 270.693 460.02 270.097 460.67 269.49C460.8 269.49 460.886 269.555 460.93 269.685C460.973 269.815 460.995 269.967 460.995 270.14C460.995 270.292 460.984 270.454 460.962 270.628C460.962 270.78 460.962 270.899 460.962 270.985Z" fill="#0015FF"/>
<path d="M478.029 276.707C478.159 276.794 478.213 276.869 478.192 276.934C478.17 276.999 478.116 277.064 478.029 277.129C477.964 277.194 477.877 277.249 477.769 277.292C477.661 277.314 477.574 277.335 477.509 277.357L476.534 277.552C475.71 277.725 474.93 277.964 474.193 278.267C473.456 278.592 472.709 278.907 471.95 279.21C471.863 279.102 471.744 279.026 471.592 278.982C471.462 278.939 471.343 278.982 471.235 279.112C471.257 279.177 471.267 279.275 471.267 279.405C471.267 279.665 471.257 279.871 471.235 280.023C471.213 280.196 471.17 280.348 471.105 280.478C471.061 280.608 470.986 280.727 470.877 280.835C470.769 280.965 470.628 281.117 470.455 281.291C470.238 281.507 470.27 281.616 470.552 281.616C470.4 281.811 470.238 281.919 470.065 281.941C470.021 281.962 469.956 281.973 469.87 281.973C469.826 281.973 469.783 281.984 469.739 282.006C469.718 282.049 469.739 282.136 469.804 282.266C469.87 282.417 469.913 282.515 469.935 282.558C469.935 282.58 469.902 282.634 469.837 282.721C469.772 282.808 469.707 282.894 469.642 282.981C469.577 283.089 469.523 283.187 469.479 283.274C469.436 283.382 469.436 283.469 469.479 283.534V283.794C469.588 283.837 469.588 283.87 469.479 283.891C469.393 283.935 469.339 283.956 469.317 283.956C469.295 283.956 469.23 284 469.122 284.086C469.013 284.195 468.959 284.26 468.959 284.281C468.916 284.325 468.862 284.346 468.797 284.346C468.753 284.368 468.699 284.4 468.634 284.444C468.613 284.444 468.58 284.476 468.537 284.541C468.515 284.628 468.493 284.715 468.472 284.801C468.45 284.888 468.428 284.975 468.407 285.061C468.385 285.148 468.385 285.202 468.407 285.224C468.407 285.506 468.374 285.744 468.309 285.939C468.266 286.134 468.212 286.373 468.147 286.654C468.06 287.001 467.93 287.24 467.756 287.37C467.605 287.521 467.442 287.651 467.269 287.76C467.095 287.89 466.922 288.031 466.749 288.182C466.597 288.334 466.478 288.583 466.391 288.93C466.369 289.017 466.348 289.093 466.326 289.158C466.304 289.201 466.294 289.255 466.294 289.32V289.385C466.207 289.537 466.131 289.656 466.066 289.743C466.023 289.851 465.979 289.949 465.936 290.035C465.893 290.122 465.86 290.219 465.838 290.328C465.817 290.436 465.806 290.566 465.806 290.718C465.849 290.783 465.849 290.88 465.806 291.01C465.784 291.141 465.741 291.271 465.676 291.401C465.611 291.531 465.535 291.661 465.448 291.791C465.383 291.921 465.329 292.018 465.286 292.083C465.221 292.192 465.145 292.3 465.058 292.408C464.972 292.517 464.885 292.625 464.798 292.733C464.343 293.362 463.964 293.98 463.66 294.586C463.205 295.497 462.653 296.364 462.003 297.187C461.872 297.339 461.721 297.501 461.547 297.675C461.396 297.848 461.276 298.021 461.19 298.195V298.422C461.19 298.856 461.071 299.181 460.832 299.398C460.594 299.614 460.301 299.82 459.954 300.015C459.846 300.102 459.727 300.189 459.597 300.275C459.467 300.362 459.359 300.47 459.272 300.6C459.142 300.774 458.968 300.991 458.752 301.251C458.513 301.511 458.297 301.695 458.102 301.803C458.058 301.803 457.917 301.792 457.679 301.771C457.441 301.749 457.3 301.738 457.256 301.738C457.213 301.76 457.148 301.803 457.061 301.868C456.953 301.933 456.845 301.998 456.736 302.063C456.628 302.128 456.519 302.182 456.411 302.226C456.303 302.269 456.238 302.28 456.216 302.258C456.086 302.193 455.978 302.161 455.891 302.161C455.848 302.161 455.804 302.182 455.761 302.226C455.696 302.291 455.642 302.345 455.598 302.388C455.425 302.345 455.295 302.323 455.208 302.323C455.165 302.323 455.1 302.28 455.013 302.193C454.905 302.107 454.807 301.998 454.721 301.868C454.612 301.76 454.526 301.652 454.461 301.543C454.374 301.435 454.32 301.359 454.298 301.316C454.146 301.077 454.06 300.795 454.038 300.47C454.016 300.145 454.027 299.799 454.07 299.43C454.092 299.083 454.136 298.737 454.201 298.39C454.266 298.043 454.331 297.74 454.396 297.48C454.504 297.046 454.601 296.602 454.688 296.147C454.775 295.713 454.818 295.28 454.818 294.846C454.818 294.738 454.84 294.651 454.883 294.586C454.927 294.521 454.97 294.456 455.013 294.391C455.057 294.348 455.067 294.294 455.046 294.229C455.024 294.185 455.002 294.142 454.981 294.099C454.959 294.034 454.981 293.904 455.046 293.709C455.111 293.514 455.197 293.297 455.306 293.059C455.393 292.842 455.49 292.625 455.598 292.408C455.685 292.213 455.75 292.083 455.793 292.018C456.227 291.238 456.628 290.415 456.996 289.548C457.343 288.681 457.798 287.901 458.362 287.207C458.687 286.817 459.012 286.427 459.337 286.037C459.662 285.647 459.976 285.235 460.28 284.801C460.41 284.628 460.518 284.498 460.605 284.411C460.735 284.238 460.93 284.097 461.19 283.989C461.45 283.88 461.699 283.848 461.937 283.891C461.959 283.891 462.057 283.826 462.23 283.696C462.425 283.566 462.533 283.49 462.555 283.469C462.642 283.187 462.783 282.883 462.978 282.558C463.173 282.255 463.368 281.984 463.563 281.746C463.693 281.594 463.866 281.486 464.083 281.421C464.3 281.356 464.527 281.291 464.766 281.226C465.026 281.16 465.275 281.074 465.513 280.965C465.752 280.879 465.969 280.716 466.164 280.478C466.315 280.304 466.51 280.099 466.749 279.86C467.009 279.622 467.258 279.459 467.496 279.373C467.713 279.416 468.006 279.383 468.374 279.275C468.764 279.167 469.024 279.015 469.154 278.82C469.263 278.668 469.317 278.419 469.317 278.072C469.317 277.899 469.382 277.682 469.512 277.422C469.664 277.162 469.783 276.967 469.87 276.837C469.978 276.664 470.065 276.49 470.13 276.317C470.195 276.143 470.26 275.97 470.325 275.797C470.368 275.688 470.4 275.591 470.422 275.504C470.444 275.396 470.465 275.287 470.487 275.179C470.509 275.157 470.552 275.081 470.617 274.951C470.682 274.821 470.747 274.691 470.812 274.561C470.899 274.431 470.964 274.312 471.007 274.204C471.072 274.074 471.094 273.998 471.072 273.976C471.072 273.955 471.007 273.933 470.877 273.911C470.747 273.889 470.606 273.879 470.455 273.879C470.325 273.857 470.195 273.846 470.065 273.846C469.935 273.824 469.859 273.814 469.837 273.814C469.75 273.814 469.62 273.846 469.447 273.911C469.295 273.976 469.122 274.052 468.927 274.139C468.753 274.225 468.602 274.323 468.472 274.431C468.342 274.518 468.266 274.583 468.244 274.626C467.551 274.865 466.857 274.995 466.164 275.016C465.47 275.038 464.777 275.179 464.083 275.439C463.671 275.591 463.216 275.71 462.718 275.797C462.241 275.862 461.775 275.883 461.32 275.862C461.298 275.862 461.233 275.851 461.125 275.829C461.016 275.786 460.897 275.742 460.767 275.699C460.637 275.634 460.518 275.58 460.41 275.537C460.301 275.493 460.236 275.472 460.215 275.472C460.106 275.428 459.998 275.352 459.889 275.244C459.803 275.114 459.716 274.984 459.629 274.854C459.564 274.702 459.499 274.561 459.434 274.431C459.369 274.28 459.315 274.16 459.272 274.074C459.163 273.835 459.077 273.597 459.012 273.359C458.925 273.12 458.86 272.882 458.817 272.643C458.795 272.643 458.784 272.557 458.784 272.383C458.784 272.297 458.773 272.221 458.752 272.156C458.665 271.571 458.611 270.92 458.589 270.205C458.546 269.49 458.687 268.872 459.012 268.352C459.098 268.201 459.196 268.038 459.304 267.865C459.413 267.67 459.521 267.507 459.629 267.377C459.716 267.269 459.792 267.182 459.857 267.117C459.922 267.052 459.998 266.965 460.085 266.857C460.106 266.814 460.15 266.77 460.215 266.727C460.28 266.662 460.312 266.618 460.312 266.597C460.55 266.358 460.767 266.109 460.962 265.849C461.157 265.589 461.342 265.329 461.515 265.069C461.558 265.004 461.623 264.928 461.71 264.841C461.797 264.733 461.883 264.635 461.97 264.549C462.078 264.44 462.187 264.365 462.295 264.321C462.403 264.256 462.501 264.245 462.588 264.289C462.696 264.289 462.794 264.289 462.88 264.289C462.989 264.289 463.097 264.3 463.205 264.321C463.314 264.495 463.39 264.635 463.433 264.744C463.498 264.852 463.53 264.971 463.53 265.101C463.552 265.21 463.552 265.34 463.53 265.492C463.53 265.622 463.53 265.784 463.53 265.979C463.422 266.066 463.303 266.153 463.173 266.239C463.043 266.326 462.913 266.413 462.783 266.499C462.739 266.543 462.664 266.683 462.555 266.922C462.468 267.16 462.371 267.431 462.263 267.735C462.176 268.016 462.089 268.298 462.003 268.58C461.937 268.84 461.894 269.002 461.872 269.067C461.742 269.631 461.515 270.194 461.19 270.758C460.886 271.321 460.54 271.809 460.15 272.221L460.117 272.318C460.269 272.47 460.399 272.622 460.507 272.773C460.637 272.903 460.767 273.033 460.897 273.163C461.157 273.163 461.407 273.131 461.645 273.066C461.753 273.153 461.862 273.239 461.97 273.326C462.1 273.413 462.208 273.51 462.295 273.619C462.577 273.619 462.826 273.619 463.043 273.619C463.281 273.619 463.498 273.608 463.693 273.586C463.91 273.564 464.126 273.521 464.343 273.456C464.56 273.391 464.787 273.283 465.026 273.131C465.112 273.088 465.242 273.012 465.416 272.903C465.589 272.773 465.73 272.708 465.838 272.708L467.009 272.513C467.204 272.427 467.388 272.329 467.561 272.221C467.756 272.091 467.941 271.972 468.114 271.863C468.222 271.798 468.342 271.744 468.472 271.701C468.623 271.636 468.753 271.581 468.862 271.538C469.534 271.235 470.108 270.834 470.585 270.335C471.083 269.837 471.592 269.338 472.113 268.84C472.524 268.45 472.914 268.005 473.283 267.507C473.673 266.987 473.987 266.478 474.226 265.979C474.377 265.611 474.551 265.242 474.746 264.874C474.941 264.484 475.158 264.137 475.396 263.834C475.569 263.639 475.819 263.476 476.144 263.346C476.469 263.216 476.761 263.129 477.021 263.086C477.195 263.043 477.357 263.108 477.509 263.281C477.661 263.433 477.736 263.584 477.736 263.736C477.758 264.148 477.747 264.495 477.704 264.776C477.661 265.058 477.585 265.318 477.476 265.557C477.368 265.773 477.227 266.001 477.054 266.239C476.88 266.456 476.664 266.727 476.404 267.052L475.656 268.027C475.634 268.071 475.634 268.103 475.656 268.125C475.699 268.146 475.732 268.179 475.753 268.222C475.775 268.266 475.775 268.341 475.753 268.45C475.732 268.536 475.699 268.645 475.656 268.775C475.613 268.905 475.569 269.024 475.526 269.132C475.483 269.241 475.45 269.306 475.428 269.327C475.407 269.327 475.385 269.36 475.363 269.425C475.342 269.468 475.309 269.512 475.266 269.555L475.136 269.75C474.854 270.162 474.616 270.574 474.421 270.985C474.247 271.376 474.182 271.82 474.226 272.318C474.226 272.513 474.171 272.687 474.063 272.838C473.976 272.99 473.868 273.153 473.738 273.326C473.608 273.478 473.478 273.662 473.348 273.879C473.218 274.095 473.131 274.388 473.088 274.756C473.066 274.843 473.055 274.919 473.055 274.984C473.055 275.027 473.044 275.06 473.023 275.081C473.023 275.103 473.023 275.125 473.023 275.146V275.211C472.914 275.645 472.795 276.024 472.665 276.349C472.535 276.653 472.383 277.021 472.21 277.455C472.232 277.455 472.297 277.4 472.405 277.292C472.535 277.184 472.676 277.075 472.828 276.967C473.001 276.859 473.175 276.761 473.348 276.674C473.543 276.588 473.727 276.577 473.901 276.642C474.031 276.685 474.182 276.707 474.356 276.707C474.529 276.685 474.692 276.653 474.843 276.609C475.017 276.566 475.158 276.533 475.266 276.512C475.374 276.468 475.439 276.447 475.461 276.447C475.656 276.447 475.84 276.447 476.014 276.447C476.187 276.447 476.36 276.458 476.534 276.479C476.555 276.501 476.62 276.512 476.729 276.512C476.859 276.512 477 276.523 477.151 276.544C477.325 276.566 477.487 276.588 477.639 276.609C477.812 276.631 477.942 276.664 478.029 276.707ZM468.212 281.128C468.147 281.193 468.027 281.312 467.854 281.486C467.681 281.681 467.486 281.865 467.269 282.038C467.074 282.233 466.879 282.385 466.684 282.493C466.489 282.623 466.348 282.667 466.261 282.623L466.001 282.753C465.784 282.862 465.643 283.013 465.578 283.209C465.513 283.404 465.448 283.609 465.383 283.826C465.34 284.043 465.275 284.249 465.188 284.444C465.123 284.639 464.972 284.791 464.733 284.899C464.451 284.769 464.246 284.671 464.116 284.606C464.007 284.541 463.91 284.52 463.823 284.541C463.736 284.563 463.639 284.639 463.53 284.769C463.422 284.921 463.238 285.137 462.978 285.419C462.371 286.113 461.753 286.795 461.125 287.467C460.518 288.161 459.9 288.854 459.272 289.548C459.12 289.981 458.936 290.425 458.719 290.88C458.481 291.336 458.242 291.78 458.004 292.213C457.744 292.668 457.516 293.189 457.321 293.774C457.126 294.359 456.964 294.955 456.834 295.562C456.682 296.19 456.563 296.819 456.476 297.447C456.368 298.076 456.281 298.661 456.216 299.203C456.238 299.246 456.314 299.257 456.444 299.235C456.574 299.235 456.714 299.213 456.866 299.17C456.996 299.148 457.126 299.116 457.256 299.073C457.386 299.051 457.473 299.029 457.516 299.008C457.538 299.008 457.592 298.964 457.679 298.877C457.766 298.791 457.863 298.693 457.971 298.585C458.058 298.477 458.145 298.368 458.232 298.26C458.297 298.173 458.329 298.119 458.329 298.097C458.416 298.054 458.567 297.989 458.784 297.902C459.001 297.816 459.153 297.772 459.239 297.772C459.283 297.772 459.315 297.686 459.337 297.512C459.337 297.339 459.337 297.23 459.337 297.187V296.634C459.293 296.591 459.283 296.472 459.304 296.277C459.304 296.082 459.304 295.963 459.304 295.919C459.543 295.811 459.77 295.703 459.987 295.594C460.225 295.486 460.464 295.367 460.702 295.237C460.767 295.042 460.843 294.836 460.93 294.619C461.016 294.424 461.114 294.229 461.222 294.034C461.656 293.21 462.068 292.387 462.458 291.563C462.848 290.761 463.292 289.949 463.79 289.125C464.159 288.518 464.506 287.901 464.831 287.272C465.177 286.665 465.535 286.048 465.903 285.419C465.925 285.376 465.969 285.289 466.034 285.159C466.12 285.029 466.207 284.899 466.294 284.769C466.402 284.639 466.499 284.52 466.586 284.411C466.695 284.325 466.781 284.281 466.846 284.281C466.955 284.281 467.02 284.195 467.041 284.021C467.063 283.87 467.074 283.761 467.074 283.696C467.074 283.609 467.128 283.425 467.236 283.144C467.366 282.883 467.496 282.602 467.626 282.298C467.778 282.017 467.908 281.756 468.017 281.518C468.147 281.28 468.212 281.15 468.212 281.128Z" fill="#0015FF"/>
<path d="M513.04 265.589C513.062 265.957 513.019 266.315 512.91 266.662C512.802 266.987 512.683 267.323 512.553 267.67C512.423 267.995 512.293 268.331 512.163 268.677C512.054 269.002 512 269.349 512 269.718C511.762 269.696 511.567 269.772 511.415 269.945C511.285 270.097 511.166 270.292 511.057 270.53C510.971 270.769 510.895 271.018 510.83 271.278C510.765 271.516 510.7 271.701 510.635 271.831C510.201 272.654 509.649 273.445 508.977 274.204C508.327 274.941 507.601 275.634 506.799 276.284C506.019 276.913 505.195 277.487 504.328 278.007C503.461 278.527 502.594 278.972 501.728 279.34L501.695 279.373C501.305 279.373 500.872 279.362 500.395 279.34C499.94 279.318 499.55 279.156 499.224 278.852C498.921 278.896 498.585 278.863 498.217 278.755C497.848 278.668 497.556 278.516 497.339 278.3L497.306 278.267C497.133 277.964 496.949 277.704 496.754 277.487C496.559 277.27 496.342 277.043 496.104 276.804C495.8 276.479 495.508 276.165 495.226 275.862C494.966 275.558 494.76 275.19 494.608 274.756C494.435 274.258 494.272 273.759 494.121 273.261C493.991 272.741 493.817 272.232 493.601 271.733C493.21 272.21 492.809 272.622 492.398 272.968C491.986 273.294 491.585 273.619 491.195 273.944C490.805 274.269 490.436 274.637 490.09 275.049C489.765 275.461 489.472 275.981 489.212 276.609L489.179 276.674C488.529 276.674 487.966 276.848 487.489 277.194C487.034 277.52 486.59 277.834 486.156 278.137C485.723 278.441 485.268 278.657 484.791 278.787C484.336 278.917 483.805 278.766 483.198 278.332H482.093L482.06 278.267C481.67 277.465 481.291 276.62 480.922 275.732C480.576 274.843 480.305 273.944 480.11 273.033C479.915 272.102 479.828 271.18 479.85 270.27C479.871 269.338 480.055 268.428 480.402 267.54C480.554 267.171 480.716 266.824 480.89 266.499C481.085 266.174 481.302 265.849 481.54 265.524C481.562 265.502 481.572 265.481 481.572 265.459C481.702 265.567 481.833 265.535 481.963 265.361C482.114 265.188 482.223 265.069 482.288 265.004V263.899C482.353 263.877 482.439 263.866 482.548 263.866C482.678 263.866 482.797 263.866 482.905 263.866C483.014 263.866 483.111 263.866 483.198 263.866C483.285 263.844 483.339 263.79 483.36 263.704C483.382 263.682 483.382 263.649 483.36 263.606C483.339 263.563 483.328 263.519 483.328 263.476C483.328 263.216 483.393 263.01 483.523 262.858C483.675 262.685 483.848 262.533 484.043 262.403C484.238 262.273 484.433 262.165 484.628 262.078C484.823 261.97 484.964 261.861 485.051 261.753C485.224 261.753 485.387 261.764 485.538 261.786C485.69 261.786 485.831 261.84 485.961 261.948C486.091 262.056 486.178 262.208 486.221 262.403C486.286 262.598 486.319 262.804 486.319 263.021C486.34 263.216 486.362 263.422 486.384 263.639C486.405 263.855 486.449 264.039 486.514 264.191L486.546 264.224C486.546 264.527 486.47 264.787 486.319 265.004C486.189 265.199 486.026 265.383 485.831 265.557C485.658 265.73 485.473 265.903 485.278 266.077C485.105 266.25 484.986 266.456 484.921 266.694V266.727C484.682 267.03 484.433 267.334 484.173 267.637C483.935 267.94 483.675 268.244 483.393 268.547C483.631 268.742 483.707 268.916 483.62 269.067C483.555 269.197 483.447 269.317 483.295 269.425C483.165 269.533 483.068 269.642 483.003 269.75C482.959 269.858 483.079 269.978 483.36 270.108C483.295 270.303 483.187 270.498 483.035 270.693C482.884 270.866 482.732 271.05 482.58 271.245C482.45 271.441 482.353 271.636 482.288 271.831C482.244 272.026 482.309 272.242 482.483 272.481L482.548 272.513C482.483 272.622 482.461 272.828 482.483 273.131C482.526 273.413 482.58 273.727 482.645 274.074C482.732 274.399 482.819 274.724 482.905 275.049C482.992 275.352 483.046 275.58 483.068 275.732C483.241 276.013 483.447 276.208 483.686 276.317C483.946 276.403 484.184 276.436 484.401 276.414C484.639 276.393 484.834 276.328 484.986 276.219C485.159 276.111 485.246 275.981 485.246 275.829L485.473 275.732C485.517 275.883 485.582 275.959 485.669 275.959C485.755 275.938 485.853 275.894 485.961 275.829C486.069 275.786 486.145 275.753 486.189 275.732C486.232 275.71 486.308 275.688 486.416 275.667C486.806 275.58 487.207 275.396 487.619 275.114C488.052 274.832 488.453 274.507 488.822 274.139C489.19 273.77 489.504 273.369 489.765 272.936C490.046 272.502 490.241 272.102 490.35 271.733V271.668H490.415C490.848 271.495 491.206 271.245 491.487 270.92C491.769 270.595 492.029 270.27 492.268 269.945C492.506 269.598 492.766 269.295 493.048 269.035C493.33 268.753 493.687 268.569 494.121 268.482C494.186 268.309 494.283 268.157 494.413 268.027C494.543 267.875 494.662 267.735 494.771 267.605C494.901 267.453 495.009 267.312 495.096 267.182C495.204 267.03 495.258 266.868 495.258 266.694C495.258 266.608 495.237 266.499 495.193 266.369C495.172 266.239 495.161 266.153 495.161 266.109C495.248 266.022 495.421 265.882 495.681 265.687C495.941 265.47 496.201 265.242 496.461 265.004C496.743 264.766 497.003 264.538 497.241 264.321C497.48 264.105 497.621 263.942 497.664 263.834L497.729 263.899C497.967 264.137 498.13 264.386 498.217 264.646C498.303 264.885 498.347 265.134 498.347 265.394C498.347 265.632 498.314 265.892 498.249 266.174C498.184 266.434 498.13 266.694 498.087 266.954L498.054 266.987C497.924 267.204 497.794 267.399 497.664 267.572C497.556 267.724 497.415 267.886 497.241 268.06C496.96 268.341 496.7 268.688 496.461 269.1C496.526 269.425 496.526 269.75 496.461 270.075C496.396 270.4 496.331 270.725 496.266 271.05C496.201 271.354 496.169 271.657 496.169 271.961C496.19 272.264 496.299 272.567 496.494 272.871C496.299 272.979 496.19 273.098 496.169 273.228C496.169 273.337 496.201 273.456 496.266 273.586C496.353 273.716 496.44 273.846 496.526 273.976C496.635 274.106 496.7 274.247 496.721 274.399C497.025 274.789 497.382 275.092 497.794 275.309C498.206 275.526 498.639 275.677 499.094 275.764C499.55 275.851 500.005 275.905 500.46 275.927C500.937 275.927 501.402 275.927 501.858 275.927H502.768C503.461 275.927 504.014 275.764 504.426 275.439C504.838 275.114 505.195 274.724 505.499 274.269C505.824 273.814 506.149 273.348 506.474 272.871C506.799 272.394 507.221 272.004 507.742 271.701C507.742 271.354 507.817 271.094 507.969 270.92C508.121 270.747 508.273 270.595 508.424 270.465C508.598 270.335 508.728 270.194 508.814 270.043C508.923 269.869 508.912 269.62 508.782 269.295C509.042 269.208 509.259 269.046 509.432 268.807C509.605 268.569 509.757 268.309 509.887 268.027C510.039 267.724 510.169 267.431 510.277 267.149C510.407 266.846 510.548 266.586 510.7 266.369C510.635 266.131 510.613 265.903 510.635 265.687C510.678 265.47 510.711 265.264 510.732 265.069C510.754 264.852 510.732 264.646 510.667 264.451C510.602 264.256 510.44 264.05 510.18 263.834L510.147 263.801V263.769C510.039 263.509 510.017 263.292 510.082 263.118C510.169 262.945 510.277 262.783 510.407 262.631C510.559 262.479 510.689 262.338 510.797 262.208C510.927 262.078 510.982 261.926 510.96 261.753C511.632 261.753 512.109 261.872 512.39 262.111C512.694 262.327 512.889 262.62 512.975 262.988C513.062 263.335 513.084 263.736 513.04 264.191C513.019 264.646 513.019 265.112 513.04 265.589Z" fill="#0015FF"/>
<path d="M535.991 273.554C535.536 274.529 535.103 275.298 534.691 275.862C534.279 276.425 533.813 276.902 533.293 277.292C532.795 277.66 532.188 278.007 531.473 278.332C530.757 278.657 529.858 279.069 528.774 279.568C528.341 279.459 527.918 279.427 527.507 279.47C527.095 279.535 526.694 279.578 526.304 279.6C525.935 279.622 525.578 279.578 525.231 279.47C524.884 279.383 524.57 279.123 524.288 278.69H523.801C523.822 278.408 523.79 278.105 523.703 277.78C523.638 277.476 523.432 277.303 523.085 277.26C523.302 277.021 523.443 276.761 523.508 276.479C523.573 276.176 523.616 275.872 523.638 275.569C523.681 275.266 523.736 274.973 523.801 274.691C523.866 274.41 524.028 274.171 524.288 273.976C524.028 273.629 523.92 273.283 523.963 272.936C524.028 272.567 524.147 272.21 524.321 271.863C524.516 271.495 524.711 271.137 524.906 270.79C525.123 270.422 525.231 270.054 525.231 269.685C525.036 269.555 524.852 269.382 524.678 269.165C524.527 268.927 524.31 268.862 524.028 268.97C523.443 269.533 522.858 270.075 522.273 270.595C521.688 271.094 521.113 271.614 520.55 272.156C520.008 272.698 519.488 273.272 518.989 273.879C518.513 274.464 518.068 275.114 517.657 275.829C517.288 275.894 517.006 276.068 516.811 276.349C516.616 276.631 516.443 276.934 516.291 277.26C516.14 277.563 515.966 277.855 515.771 278.137C515.598 278.419 515.349 278.603 515.023 278.69C514.915 279.037 514.807 279.383 514.698 279.73C514.568 280.099 514.449 280.456 514.341 280.803C514.211 280.738 514.048 280.684 513.853 280.64C513.636 280.597 513.431 280.543 513.235 280.478C513.04 280.413 512.867 280.326 512.715 280.218C512.564 280.131 512.466 280.012 512.423 279.86C512.401 279.817 512.401 279.719 512.423 279.568C512.423 279.438 512.423 279.351 512.423 279.308C512.466 278.701 512.629 278.126 512.91 277.585C513.17 277.064 513.452 276.555 513.756 276.057C514.059 275.537 514.341 275.016 514.601 274.496C514.861 273.976 515.002 273.402 515.023 272.773C515.349 272.773 515.554 272.676 515.641 272.481C515.749 272.286 515.825 272.08 515.869 271.863C515.934 271.646 516.01 271.451 516.096 271.278C516.183 271.105 516.378 271.04 516.681 271.083C516.486 270.823 516.4 270.541 516.421 270.238C516.465 269.913 516.551 269.598 516.681 269.295C516.811 268.97 516.974 268.666 517.169 268.385C517.364 268.081 517.527 267.81 517.657 267.572C517.635 267.269 517.657 266.965 517.722 266.662C517.808 266.358 517.949 266.088 518.144 265.849C518.339 265.611 518.513 265.383 518.664 265.166C518.816 264.95 518.968 264.722 519.119 264.484C519.206 264.375 519.271 264.256 519.315 264.126C519.38 263.996 519.445 263.877 519.51 263.769C519.705 263.487 519.835 263.194 519.9 262.891C519.965 262.566 520.03 262.252 520.095 261.948C520.181 261.623 520.29 261.341 520.42 261.103C520.572 260.843 520.832 260.637 521.2 260.485C521.2 260.247 521.233 260.03 521.298 259.835C521.384 259.618 521.471 259.402 521.558 259.185C521.644 258.968 521.72 258.762 521.785 258.567C521.872 258.351 521.915 258.123 521.915 257.885C521.98 257.776 522.078 257.668 522.208 257.56C522.338 257.451 522.457 257.343 522.565 257.234C522.674 257.126 522.76 257.018 522.825 256.909C522.89 256.779 522.901 256.628 522.858 256.454C522.88 256.172 522.869 255.88 522.825 255.577C522.804 255.273 522.89 255.013 523.085 254.796C523.042 254.515 523.075 254.287 523.183 254.114C523.313 253.94 523.465 253.789 523.638 253.659C523.812 253.528 523.996 253.409 524.191 253.301C524.407 253.171 524.592 253.03 524.743 252.878C524.635 252.727 524.613 252.553 524.678 252.358C524.743 252.163 524.83 251.979 524.938 251.806C525.068 251.611 525.209 251.426 525.361 251.253C525.513 251.08 525.621 250.928 525.686 250.798C525.816 250.538 525.925 250.278 526.011 250.018C526.12 249.758 526.239 249.519 526.369 249.302C526.499 249.064 526.651 248.847 526.824 248.652C527.019 248.457 527.268 248.295 527.572 248.165C527.485 247.731 527.507 247.395 527.637 247.157C527.788 246.918 527.983 246.713 528.222 246.539C528.482 246.366 528.753 246.203 529.034 246.052C529.316 245.878 529.544 245.64 529.717 245.336C529.956 245.271 530.216 245.206 530.497 245.141C530.779 245.055 531.061 245 531.343 244.979C531.624 244.935 531.895 244.935 532.155 244.979C532.415 245.022 532.654 245.141 532.87 245.336C532.957 245.423 533.011 245.477 533.033 245.499C533.055 245.521 533.066 245.542 533.066 245.564C533.066 245.564 533.066 245.586 533.066 245.629C533.087 245.651 533.141 245.705 533.228 245.792C533.315 245.878 533.401 245.965 533.488 246.052C533.575 246.117 533.662 246.203 533.748 246.312C533.77 246.463 533.77 246.637 533.748 246.832C533.727 247.005 533.716 247.179 533.716 247.352C533.716 247.525 533.737 247.688 533.781 247.84C533.846 247.991 533.987 248.1 534.203 248.165C534.03 248.793 533.954 249.465 533.976 250.18C533.997 250.895 534.008 251.621 534.008 252.358C534.008 253.073 533.954 253.767 533.846 254.439C533.737 255.111 533.456 255.707 533.001 256.227L532.773 257.885C532.491 257.906 532.296 258.004 532.188 258.177C532.079 258.329 532.004 258.513 531.96 258.73C531.917 258.947 531.874 259.174 531.83 259.412C531.809 259.651 531.733 259.846 531.603 259.998C531.429 260.214 531.256 260.464 531.083 260.745C530.909 261.027 530.725 261.287 530.53 261.526C530.335 261.764 530.107 261.97 529.847 262.143C529.609 262.295 529.327 262.371 529.002 262.371C528.959 262.501 528.872 262.652 528.742 262.826C528.612 262.999 528.46 263.173 528.287 263.346C528.135 263.498 527.973 263.639 527.799 263.769C527.626 263.877 527.474 263.953 527.344 263.996C527.171 264.061 527.008 264.115 526.856 264.159C526.726 264.18 526.575 264.245 526.401 264.354C526.206 264.462 526.011 264.603 525.816 264.776C525.621 264.95 525.415 265.101 525.199 265.231C524.982 265.361 524.754 265.459 524.516 265.524C524.277 265.567 524.039 265.535 523.801 265.427C523.519 265.773 523.194 265.99 522.825 266.077C522.479 266.142 522.132 266.196 521.785 266.239C521.46 266.261 521.146 266.337 520.842 266.467C520.561 266.575 520.344 266.835 520.192 267.247C520.149 267.29 520.106 267.388 520.062 267.54C520.041 267.67 520.03 267.756 520.03 267.8C520.03 268.038 520.019 268.331 519.997 268.677C519.976 269.024 520.062 269.284 520.257 269.458C521.037 269.089 521.774 268.656 522.468 268.157C523.183 267.637 523.942 267.204 524.743 266.857L524.971 267.117C525.036 266.64 525.242 266.402 525.589 266.402C525.935 266.38 526.293 266.38 526.661 266.402H526.889C526.932 266.402 526.965 266.402 526.986 266.402C527.03 266.38 527.073 266.369 527.117 266.369C527.528 266.369 527.799 266.532 527.929 266.857C528.059 267.182 528.178 267.496 528.287 267.8C528.048 268.06 527.853 268.374 527.702 268.742C527.572 269.089 527.442 269.458 527.312 269.848C527.203 270.238 527.073 270.628 526.921 271.018C526.791 271.386 526.607 271.733 526.369 272.058C526.564 272.167 526.651 272.286 526.629 272.416C526.607 272.546 526.564 272.676 526.499 272.806C526.456 272.936 526.445 273.066 526.466 273.196C526.488 273.304 526.629 273.391 526.889 273.456C526.672 273.608 526.521 273.792 526.434 274.009C526.369 274.204 526.304 274.42 526.239 274.659C526.195 274.876 526.141 275.092 526.076 275.309C526.011 275.504 525.881 275.677 525.686 275.829C525.773 276.024 525.838 276.219 525.881 276.414C525.946 276.588 525.957 276.794 525.914 277.032C526.217 277.422 526.521 277.639 526.824 277.682C527.149 277.725 527.463 277.704 527.767 277.617C528.07 277.53 528.384 277.444 528.709 277.357C529.035 277.27 529.37 277.292 529.717 277.422C530.324 277.01 530.747 276.761 530.985 276.674C531.223 276.588 531.408 276.523 531.538 276.479C531.689 276.436 531.863 276.338 532.058 276.187C532.253 276.035 532.621 275.699 533.163 275.179C533.705 275.027 534.182 274.778 534.593 274.431C535.027 274.085 535.493 273.792 535.991 273.554ZM531.148 246.994C531.169 247.254 531.104 247.46 530.952 247.612C530.822 247.742 530.671 247.872 530.497 248.002C530.324 248.11 530.151 248.23 529.977 248.36C529.826 248.468 529.739 248.641 529.717 248.88C529.435 249.01 529.251 249.183 529.165 249.4C529.078 249.617 529.002 249.844 528.937 250.083C528.894 250.299 528.818 250.516 528.709 250.733C528.601 250.95 528.384 251.123 528.059 251.253L528.287 251.48C527.572 252.131 526.997 252.9 526.564 253.789C526.152 254.677 525.784 255.566 525.459 256.454C525.155 256.779 524.938 257.148 524.808 257.56C524.678 257.95 524.548 258.351 524.418 258.762C524.31 259.152 524.158 259.532 523.963 259.9C523.79 260.247 523.497 260.518 523.085 260.713C523.302 260.995 523.378 261.255 523.313 261.493C523.27 261.731 523.161 261.959 522.988 262.176C522.815 262.392 522.63 262.609 522.435 262.826C522.262 263.043 522.164 263.281 522.143 263.541C522.555 263.628 522.955 263.617 523.346 263.509C523.757 263.4 524.158 263.248 524.548 263.053C524.938 262.837 525.307 262.598 525.654 262.338C526 262.078 526.336 261.851 526.661 261.656L526.889 261.883C527.864 261.341 528.666 260.691 529.295 259.933C529.945 259.152 530.562 258.307 531.148 257.397C530.952 257.245 530.866 257.083 530.887 256.909C530.931 256.801 530.985 256.671 531.05 256.519C531.115 256.368 531.169 256.238 531.213 256.129C531.429 255.479 531.592 254.872 531.7 254.309C531.982 253.138 532.177 251.968 532.285 250.798C532.415 249.606 532.502 248.414 532.545 247.222L531.148 246.994Z" fill="#0015FF"/>
<path d="M558.747 267.475C558.552 267.67 558.4 267.821 558.292 267.93C558.205 268.038 558.119 268.146 558.032 268.255C557.967 268.341 557.88 268.439 557.772 268.547C557.685 268.656 557.544 268.818 557.349 269.035C557.176 269.208 557.013 269.393 556.862 269.588C556.71 269.783 556.536 269.956 556.341 270.108C556.081 270.043 555.875 270.075 555.724 270.205C555.594 270.335 555.464 270.487 555.334 270.66C555.225 270.812 555.117 270.964 555.009 271.115C554.922 271.245 554.803 271.3 554.651 271.278C554.131 271.56 553.611 271.809 553.091 272.026C552.57 272.221 552.072 272.513 551.595 272.903L551.335 272.643L547.954 274.269C547.846 274.312 547.738 274.377 547.629 274.464C547.521 274.55 547.412 274.626 547.304 274.691C546.827 274.951 546.329 275.19 545.809 275.407C545.31 275.602 544.812 275.786 544.313 275.959L543.891 276.089C544.064 276.523 544.064 276.826 543.891 276.999C543.717 277.173 543.468 277.303 543.143 277.39C542.818 277.455 542.46 277.498 542.07 277.52C541.68 277.541 541.377 277.617 541.16 277.747C540.9 277.704 540.629 277.682 540.347 277.682C540.087 277.704 539.816 277.736 539.535 277.78C539.231 277.823 538.95 277.845 538.689 277.845C538.429 277.845 538.148 277.812 537.844 277.747H537.779C537.411 277.921 537.086 277.953 536.804 277.845C536.544 277.758 536.306 277.606 536.089 277.39C535.872 277.151 535.666 276.88 535.471 276.577C535.298 276.252 535.114 275.959 534.918 275.699C534.788 275.526 534.626 275.277 534.431 274.951C534.236 274.626 534.073 274.28 533.943 273.911C533.792 273.543 533.705 273.174 533.683 272.806C533.64 272.416 533.716 272.08 533.911 271.798C534.106 271.516 534.268 271.213 534.398 270.888C534.507 270.563 534.561 270.184 534.561 269.75C534.561 269.598 534.561 269.458 534.561 269.327C534.539 269.197 534.528 269.057 534.528 268.905C534.637 268.905 534.756 268.916 534.886 268.937C535.016 268.937 535.135 268.937 535.244 268.937C535.374 268.916 535.471 268.872 535.536 268.807C535.623 268.721 535.666 268.58 535.666 268.385C535.666 268.276 535.623 268.19 535.536 268.125C535.471 268.06 535.428 267.995 535.406 267.93C535.536 267.735 535.655 267.583 535.764 267.475C535.894 267.344 536.002 267.225 536.089 267.117C536.175 266.987 536.241 266.846 536.284 266.694C536.327 266.521 536.316 266.293 536.251 266.012C536.511 265.557 536.815 265.156 537.162 264.809C537.53 264.44 537.909 264.105 538.299 263.801C538.689 263.476 539.09 263.162 539.502 262.858C539.914 262.555 540.304 262.23 540.672 261.883C541.084 262.056 541.409 262.056 541.648 261.883C541.908 261.71 542.135 261.526 542.33 261.33C542.525 261.114 542.72 260.94 542.916 260.81C543.111 260.68 543.371 260.734 543.696 260.973L543.761 261.038C544.346 260.453 544.931 260.193 545.516 260.258C546.123 260.323 546.632 260.518 547.044 260.843C547.478 261.168 547.759 261.547 547.889 261.981C548.019 262.392 547.9 262.674 547.532 262.826C547.77 263.064 547.889 263.346 547.889 263.671C547.889 263.996 547.803 264.278 547.629 264.516C547.434 264.776 547.261 265.047 547.109 265.329C546.979 265.589 546.838 265.871 546.686 266.174C546.47 266.673 546.231 267.149 545.971 267.605C545.711 268.038 545.343 268.406 544.866 268.71C544.476 268.601 544.205 268.645 544.053 268.84C543.923 269.035 543.826 269.252 543.761 269.49C543.696 269.707 543.62 269.88 543.533 270.01C543.446 270.14 543.262 270.097 542.981 269.88L542.916 269.815L542.851 269.88C542.677 270.054 542.536 270.249 542.428 270.465C542.341 270.682 542.211 270.845 542.038 270.953C541.843 270.888 541.637 270.834 541.42 270.79C541.203 270.747 540.998 270.704 540.802 270.66C540.802 271.115 540.716 271.473 540.542 271.733C540.369 271.993 540.141 272.21 539.86 272.383C539.6 272.535 539.296 272.665 538.95 272.773C538.603 272.86 538.256 272.979 537.909 273.131C537.584 273.261 537.27 273.434 536.967 273.651C536.685 273.846 536.457 274.128 536.284 274.496C536.501 274.735 536.771 274.876 537.097 274.919C537.422 274.941 537.758 274.941 538.104 274.919C538.451 274.876 538.787 274.854 539.112 274.854C539.459 274.854 539.762 274.941 540.022 275.114L540.055 275.146L540.087 275.114C540.607 275.049 541.106 274.93 541.583 274.756C542.081 274.561 542.558 274.366 543.013 274.171C543.49 273.955 543.967 273.759 544.443 273.586C544.942 273.391 545.451 273.25 545.971 273.163C546.08 273.337 546.221 273.434 546.394 273.456C546.589 273.478 546.773 273.467 546.947 273.424L546.979 273.359C547.022 273.207 547.066 273.077 547.109 272.968C547.152 272.838 547.217 272.698 547.304 272.546C547.456 272.307 547.64 272.123 547.857 271.993C548.073 271.863 548.301 271.766 548.539 271.701C548.8 271.636 549.07 271.592 549.352 271.571C549.634 271.549 549.916 271.516 550.197 271.473H550.262L550.295 271.376C550.382 271.115 550.49 270.942 550.62 270.855C550.772 270.747 550.923 270.671 551.075 270.628C551.248 270.584 551.422 270.552 551.595 270.53C551.79 270.509 551.974 270.444 552.148 270.335C552.538 270.465 552.863 270.422 553.123 270.205C553.383 269.988 553.632 269.761 553.871 269.523L554.131 269.848L554.228 269.718C554.553 269.414 554.792 269.187 554.944 269.035C555.117 268.883 555.279 268.753 555.431 268.645C555.583 268.515 555.756 268.396 555.951 268.287C556.168 268.157 556.461 267.973 556.829 267.735C557.132 267.54 557.425 267.344 557.707 267.149C558.01 266.954 558.303 266.738 558.584 266.499C558.693 266.543 558.747 266.629 558.747 266.759C558.747 266.868 558.747 266.976 558.747 267.084C558.725 267.128 558.704 267.193 558.682 267.279C558.682 267.366 558.704 267.431 558.747 267.475ZM545.289 263.411C545.267 263.389 545.245 263.378 545.224 263.378C545.224 263.378 545.213 263.368 545.191 263.346C544.736 263.108 544.357 262.999 544.053 263.021C543.75 263.021 543.468 263.108 543.208 263.281C542.97 263.433 542.742 263.639 542.525 263.899C542.33 264.137 542.114 264.365 541.875 264.581C541.659 264.776 541.398 264.928 541.095 265.036C540.792 265.145 540.423 265.134 539.99 265.004C539.925 265.351 539.86 265.697 539.795 266.044C539.751 266.369 539.719 266.705 539.697 267.052C539.329 267.182 539.036 267.366 538.819 267.605C538.624 267.843 538.451 268.103 538.299 268.385C538.169 268.666 538.039 268.97 537.909 269.295C537.801 269.598 537.649 269.891 537.454 270.173L537.584 270.335C537.671 270.292 537.768 270.324 537.877 270.433C537.985 270.541 538.061 270.617 538.104 270.66C538.343 270.314 538.657 270.021 539.047 269.783C539.459 269.544 539.871 269.327 540.282 269.132C540.716 268.916 541.128 268.688 541.518 268.45C541.908 268.211 542.2 267.897 542.395 267.507C543.089 267.312 543.609 266.922 543.956 266.337C544.303 265.752 544.595 265.145 544.834 264.516C544.877 264.386 544.953 264.202 545.061 263.964C545.191 263.704 545.267 263.519 545.289 263.411Z" fill="#0015FF"/>
<path d="M577.537 270.985C577.038 271.224 576.702 271.516 576.529 271.863C576.356 272.21 576.215 272.567 576.106 272.936C576.02 273.304 575.901 273.662 575.749 274.009C575.619 274.334 575.326 274.605 574.871 274.821C574.763 275.211 574.546 275.482 574.221 275.634C573.918 275.786 573.592 275.927 573.246 276.057C572.899 276.165 572.585 276.317 572.303 276.512C572.043 276.707 571.913 277.043 571.913 277.52C571.479 277.758 571.003 277.975 570.483 278.17C569.984 278.365 569.453 278.506 568.89 278.592C568.348 278.701 567.806 278.744 567.264 278.722C566.722 278.701 566.213 278.592 565.736 278.397C565.411 278.246 565.097 278.051 564.794 277.812C564.685 277.725 564.577 277.65 564.468 277.585C564.382 277.541 564.284 277.465 564.176 277.357C563.916 277.097 563.699 276.794 563.526 276.447C563.352 276.1 563.212 275.732 563.103 275.342C562.995 274.951 562.908 274.561 562.843 274.171C562.778 273.781 562.724 273.413 562.681 273.066L563.883 269.815C563.255 269.317 562.746 268.742 562.355 268.092C561.965 267.42 561.489 266.803 560.925 266.239C560.817 266.391 560.676 266.521 560.502 266.629C560.329 266.738 560.264 266.911 560.307 267.149L560.633 267.442C559.917 268.222 559.191 269.111 558.454 270.108C557.739 271.083 557.176 272.069 556.764 273.066C556.287 273.044 555.951 273.163 555.756 273.424C555.561 273.662 555.399 273.944 555.269 274.269C555.139 274.572 554.976 274.854 554.781 275.114C554.586 275.374 554.261 275.482 553.806 275.439C553.697 275.677 553.589 275.938 553.481 276.219C553.372 276.479 553.242 276.729 553.091 276.967C552.939 277.205 552.755 277.4 552.538 277.552C552.321 277.725 552.05 277.812 551.725 277.812C551.552 277.639 551.454 277.455 551.433 277.26C551.411 277.064 551.433 276.869 551.498 276.674C551.563 276.458 551.649 276.252 551.758 276.057C551.866 275.84 551.942 275.634 551.985 275.439C552.159 274.811 552.473 274.247 552.928 273.749C553.383 273.228 553.838 272.719 554.293 272.221C554.749 271.701 555.139 271.159 555.464 270.595C555.789 270.032 555.919 269.371 555.854 268.612C556.136 268.591 556.417 268.536 556.699 268.45C557.002 268.341 557.273 268.211 557.512 268.06C557.772 267.886 557.967 267.68 558.097 267.442C558.249 267.182 558.303 266.879 558.259 266.532C558.086 266.445 557.989 266.326 557.967 266.174C557.945 266.001 557.945 265.827 557.967 265.654C558.444 265.502 558.823 265.242 559.105 264.874C559.408 264.484 559.679 264.072 559.917 263.639C560.156 263.205 560.383 262.772 560.6 262.338C560.838 261.883 561.142 261.493 561.51 261.168C561.814 261.341 562.117 261.493 562.42 261.623C562.724 261.731 563.016 261.883 563.298 262.078C563.103 262.338 562.984 262.587 562.941 262.826C562.897 263.064 562.876 263.313 562.876 263.574C562.876 263.812 562.876 264.05 562.876 264.289C562.876 264.527 562.811 264.776 562.681 265.036C563.027 265.34 563.32 265.697 563.558 266.109C563.797 266.521 564.1 266.868 564.468 267.149C564.729 266.954 565.021 266.857 565.346 266.857C565.671 266.835 565.996 266.835 566.321 266.857C566.668 266.857 566.993 266.835 567.297 266.792C567.6 266.727 567.849 266.543 568.044 266.239C568.131 266.326 568.261 266.369 568.435 266.369C568.608 266.369 568.781 266.369 568.955 266.369C569.128 266.369 569.28 266.402 569.41 266.467C569.54 266.51 569.616 266.608 569.637 266.759C569.659 266.933 569.648 267.052 569.605 267.117C569.583 267.182 569.551 267.29 569.507 267.442C569.464 267.615 569.453 267.702 569.475 267.702C569.496 267.702 569.475 267.778 569.41 267.93C569.301 268.211 569.117 268.45 568.857 268.645C568.619 268.84 568.369 269.035 568.109 269.23C567.871 269.403 567.643 269.609 567.427 269.848C567.232 270.064 567.134 270.346 567.134 270.693C566.657 270.866 566.321 271.126 566.126 271.473C565.931 271.798 565.801 272.177 565.736 272.611C565.671 273.023 565.628 273.456 565.606 273.911C565.585 274.345 565.509 274.746 565.379 275.114L565.671 275.439L565.931 275.114C566.235 275.547 566.592 275.818 567.004 275.927C567.438 276.035 567.882 276.068 568.337 276.024C568.554 275.699 568.803 275.439 569.085 275.244C569.388 275.049 569.702 274.886 570.027 274.756C570.374 274.626 570.721 274.507 571.068 274.399C571.436 274.29 571.783 274.16 572.108 274.009C572.368 273.879 572.585 273.738 572.758 273.586C572.953 273.434 573.159 273.261 573.376 273.066C574.026 272.459 574.665 271.863 575.294 271.278C575.944 270.693 576.594 270.097 577.244 269.49C577.374 269.49 577.461 269.555 577.504 269.685C577.548 269.815 577.569 269.967 577.569 270.14C577.569 270.292 577.558 270.454 577.537 270.628C577.537 270.78 577.537 270.899 577.537 270.985Z" fill="#0015FF"/>
<path d="M600 267.475C599.805 267.67 599.653 267.821 599.545 267.93C599.458 268.038 599.372 268.146 599.285 268.255C599.22 268.341 599.133 268.439 599.025 268.547C598.938 268.656 598.797 268.818 598.602 269.035C598.429 269.208 598.266 269.393 598.115 269.588C597.963 269.783 597.789 269.956 597.594 270.108C597.334 270.043 597.128 270.075 596.977 270.205C596.847 270.335 596.717 270.487 596.587 270.66C596.478 270.812 596.37 270.964 596.262 271.115C596.175 271.245 596.056 271.3 595.904 271.278C595.384 271.56 594.864 271.809 594.344 272.026C593.823 272.221 593.325 272.513 592.848 272.903L592.588 272.643L589.207 274.269C589.099 274.312 588.991 274.377 588.882 274.464C588.774 274.55 588.665 274.626 588.557 274.691C588.08 274.951 587.582 275.19 587.062 275.407C586.563 275.602 586.065 275.786 585.566 275.959L585.144 276.089C585.317 276.523 585.317 276.826 585.144 276.999C584.97 277.173 584.721 277.303 584.396 277.39C584.071 277.455 583.713 277.498 583.323 277.52C582.933 277.541 582.63 277.617 582.413 277.747C582.153 277.704 581.882 277.682 581.6 277.682C581.34 277.704 581.069 277.736 580.788 277.78C580.484 277.823 580.202 277.845 579.942 277.845C579.682 277.845 579.401 277.812 579.097 277.747H579.032C578.664 277.921 578.339 277.953 578.057 277.845C577.797 277.758 577.558 277.606 577.342 277.39C577.125 277.151 576.919 276.88 576.724 276.577C576.551 276.252 576.367 275.959 576.171 275.699C576.041 275.526 575.879 275.277 575.684 274.951C575.489 274.626 575.326 274.28 575.196 273.911C575.045 273.543 574.958 273.174 574.936 272.806C574.893 272.416 574.969 272.08 575.164 271.798C575.359 271.516 575.521 271.213 575.651 270.888C575.76 270.563 575.814 270.184 575.814 269.75C575.814 269.598 575.814 269.458 575.814 269.327C575.792 269.197 575.781 269.057 575.781 268.905C575.89 268.905 576.009 268.916 576.139 268.937C576.269 268.937 576.388 268.937 576.497 268.937C576.627 268.916 576.724 268.872 576.789 268.807C576.876 268.721 576.919 268.58 576.919 268.385C576.919 268.276 576.876 268.19 576.789 268.125C576.724 268.06 576.681 267.995 576.659 267.93C576.789 267.735 576.908 267.583 577.017 267.475C577.147 267.344 577.255 267.225 577.342 267.117C577.428 266.987 577.493 266.846 577.537 266.694C577.58 266.521 577.569 266.293 577.504 266.012C577.764 265.557 578.068 265.156 578.415 264.809C578.783 264.44 579.162 264.105 579.552 263.801C579.942 263.476 580.343 263.162 580.755 262.858C581.167 262.555 581.557 262.23 581.925 261.883C582.337 262.056 582.662 262.056 582.901 261.883C583.161 261.71 583.388 261.526 583.583 261.33C583.778 261.114 583.973 260.94 584.168 260.81C584.364 260.68 584.624 260.734 584.949 260.973L585.014 261.038C585.599 260.453 586.184 260.193 586.769 260.258C587.376 260.323 587.885 260.518 588.297 260.843C588.73 261.168 589.012 261.547 589.142 261.981C589.272 262.392 589.153 262.674 588.785 262.826C589.023 263.064 589.142 263.346 589.142 263.671C589.142 263.996 589.056 264.278 588.882 264.516C588.687 264.776 588.514 265.047 588.362 265.329C588.232 265.589 588.091 265.871 587.939 266.174C587.723 266.673 587.484 267.149 587.224 267.605C586.964 268.038 586.596 268.406 586.119 268.71C585.729 268.601 585.458 268.645 585.306 268.84C585.176 269.035 585.079 269.252 585.014 269.49C584.949 269.707 584.873 269.88 584.786 270.01C584.699 270.14 584.515 270.097 584.234 269.88L584.168 269.815L584.103 269.88C583.93 270.054 583.789 270.249 583.681 270.465C583.594 270.682 583.464 270.845 583.291 270.953C583.096 270.888 582.89 270.834 582.673 270.79C582.456 270.747 582.251 270.704 582.055 270.66C582.055 271.115 581.969 271.473 581.795 271.733C581.622 271.993 581.394 272.21 581.113 272.383C580.853 272.535 580.549 272.665 580.202 272.773C579.856 272.86 579.509 272.979 579.162 273.131C578.837 273.261 578.523 273.434 578.219 273.651C577.938 273.846 577.71 274.128 577.537 274.496C577.754 274.735 578.024 274.876 578.35 274.919C578.675 274.941 579.011 274.941 579.357 274.919C579.704 274.876 580.04 274.854 580.365 274.854C580.712 274.854 581.015 274.941 581.275 275.114L581.308 275.146L581.34 275.114C581.86 275.049 582.359 274.93 582.836 274.756C583.334 274.561 583.811 274.366 584.266 274.171C584.743 273.955 585.22 273.759 585.696 273.586C586.195 273.391 586.704 273.25 587.224 273.163C587.333 273.337 587.474 273.434 587.647 273.456C587.842 273.478 588.026 273.467 588.2 273.424L588.232 273.359C588.275 273.207 588.319 273.077 588.362 272.968C588.405 272.838 588.47 272.698 588.557 272.546C588.709 272.307 588.893 272.123 589.11 271.993C589.326 271.863 589.554 271.766 589.792 271.701C590.052 271.636 590.323 271.592 590.605 271.571C590.887 271.549 591.169 271.516 591.45 271.473H591.515L591.548 271.376C591.635 271.115 591.743 270.942 591.873 270.855C592.025 270.747 592.176 270.671 592.328 270.628C592.501 270.584 592.675 270.552 592.848 270.53C593.043 270.509 593.227 270.444 593.401 270.335C593.791 270.465 594.116 270.422 594.376 270.205C594.636 269.988 594.885 269.761 595.124 269.523L595.384 269.848L595.481 269.718C595.806 269.414 596.045 269.187 596.197 269.035C596.37 268.883 596.532 268.753 596.684 268.645C596.836 268.515 597.009 268.396 597.204 268.287C597.421 268.157 597.714 267.973 598.082 267.735C598.385 267.54 598.678 267.344 598.96 267.149C599.263 266.954 599.556 266.738 599.837 266.499C599.946 266.543 600 266.629 600 266.759C600 266.868 600 266.976 600 267.084C599.978 267.128 599.957 267.193 599.935 267.279C599.935 267.366 599.957 267.431 600 267.475ZM586.542 263.411C586.52 263.389 586.498 263.378 586.477 263.378C586.477 263.378 586.466 263.368 586.444 263.346C585.989 263.108 585.61 262.999 585.306 263.021C585.003 263.021 584.721 263.108 584.461 263.281C584.223 263.433 583.995 263.639 583.778 263.899C583.583 264.137 583.367 264.365 583.128 264.581C582.912 264.776 582.651 264.928 582.348 265.036C582.045 265.145 581.676 265.134 581.243 265.004C581.178 265.351 581.113 265.697 581.048 266.044C581.004 266.369 580.972 266.705 580.95 267.052C580.582 267.182 580.289 267.366 580.072 267.605C579.877 267.843 579.704 268.103 579.552 268.385C579.422 268.666 579.292 268.97 579.162 269.295C579.054 269.598 578.902 269.891 578.707 270.173L578.837 270.335C578.924 270.292 579.021 270.324 579.13 270.433C579.238 270.541 579.314 270.617 579.357 270.66C579.596 270.314 579.91 270.021 580.3 269.783C580.712 269.544 581.124 269.327 581.535 269.132C581.969 268.916 582.381 268.688 582.771 268.45C583.161 268.211 583.453 267.897 583.648 267.507C584.342 267.312 584.862 266.922 585.209 266.337C585.556 265.752 585.848 265.145 586.086 264.516C586.13 264.386 586.206 264.202 586.314 263.964C586.444 263.704 586.52 263.519 586.542 263.411Z" fill="#0015FF"/>
</svg>
