<svg width="201" height="82" viewBox="0 0 201 82" fill="none" xmlns="http://www.w3.org/2000/svg">
<path d="M43.9009 23.7864C43.7196 24.9104 43.5021 25.7806 43.2483 26.397C42.9945 26.9771 42.6682 27.4666 42.2693 27.8655C41.9067 28.228 41.4354 28.5906 40.8552 28.9532C40.2751 29.2795 39.5862 29.769 38.7885 30.4217C38.4985 30.6392 38.2265 30.8386 37.9727 31.0199C37.7189 31.2012 37.4651 31.4188 37.2113 31.6726C36.4861 31.8901 35.5978 32.2527 34.5463 32.7603C33.4948 33.2317 32.4071 33.7212 31.2831 34.2288C30.1953 34.7001 29.1438 35.1171 28.1286 35.4797C27.1496 35.8423 26.352 35.9873 25.7356 35.9148C25.518 36.2048 25.1373 36.3861 24.5934 36.4587C24.0496 36.5312 23.6326 36.5674 23.3425 36.5674C22.8712 36.5674 22.3817 36.6037 21.8741 36.6762C21.4027 36.7487 20.9857 36.9663 20.6232 37.3289C20.5506 37.4014 20.4963 37.4376 20.46 37.4376C20.46 37.4739 20.46 37.492 20.46 37.492C20.4963 37.492 20.4963 37.492 20.46 37.492C20.46 37.5283 20.4237 37.6008 20.3512 37.7096C19.9524 38.1809 19.5354 38.4347 19.1003 38.471C18.7015 38.5072 18.3026 38.4347 17.9038 38.2534C17.505 38.1084 17.088 37.909 16.6529 37.6552C16.254 37.4014 15.8371 37.2201 15.402 37.1113C15.0031 36.9663 14.5862 36.9481 14.1511 37.0569C13.716 37.1294 13.2809 37.4195 12.8458 37.9271C12.592 37.2745 12.1931 36.8938 11.6492 36.785C11.1054 36.6762 10.5434 36.6218 9.96324 36.6218C9.41937 36.5856 8.89362 36.5312 8.38601 36.4587C7.87839 36.3499 7.53394 36.0054 7.35265 35.4253V35.3709L6.21052 34.3919L6.04735 34.5551C5.86606 34.7364 5.72103 34.9358 5.61226 35.1534C5.50348 35.3709 5.37658 35.5703 5.23154 35.7516C4.94148 36.1867 4.63328 36.6218 4.30696 37.0569C3.98064 37.4558 3.61805 37.8002 3.21921 38.0903C2.78411 38.4166 2.33089 38.6523 1.85953 38.7973C1.38817 38.9786 0.880557 39.033 0.336683 38.9605C0.336683 38.0903 0.590491 37.2926 1.09811 36.5674C1.56946 35.8423 2.04082 35.1352 2.51218 34.4463C2.94728 33.7212 3.23734 32.996 3.38237 32.2708C3.49115 31.5094 3.18295 30.7117 2.45779 29.8778C2.42153 29.3702 2.20398 28.8807 1.80514 28.4093C1.37004 27.9017 0.971202 27.4122 0.60862 26.9409C0.246038 26.4333 0.0466177 25.9438 0.0103595 25.4724C-0.062157 25.0011 0.246038 24.5297 0.934944 24.0583C0.60862 23.9858 0.391071 23.8589 0.282296 23.6776C0.282296 23.4963 0.336683 23.3151 0.445458 23.1338C0.517975 22.9162 0.590491 22.7168 0.663007 22.5355C0.880557 22.5355 1.11624 22.4992 1.37004 22.4267C1.58759 22.318 1.80514 22.2454 2.02269 22.2092C2.20398 22.1367 2.38527 22.1367 2.56656 22.2092C2.7116 22.2454 2.85663 22.4086 3.00166 22.6987C3.11044 22.9162 3.20108 23.1519 3.2736 23.4057C3.34612 23.6595 3.43676 23.9133 3.54554 24.1671C3.8356 24.8923 4.19818 25.5812 4.63328 26.2338C5.06838 26.8502 5.55787 27.4304 6.10174 27.9742L6.2649 28.1374C6.2649 28.1011 6.33742 28.0105 6.48245 27.8655C6.62749 27.7204 6.79065 27.5754 6.97194 27.4304C7.15323 27.2491 7.31639 27.0859 7.46142 26.9409C7.60646 26.7958 7.71523 26.6871 7.78775 26.6146C8.22285 26.2157 8.63982 25.835 9.03866 25.4724C9.4375 25.1098 9.78195 24.7473 10.072 24.3847C10.3983 23.9858 10.634 23.5507 10.7791 23.0794C10.9603 22.5718 11.051 21.9916 11.051 21.339C12.175 20.5776 13.2809 19.7436 14.3686 18.8372C15.4564 17.8944 16.5622 16.988 17.6862 16.1178C18.8102 15.2476 19.9705 14.468 21.167 13.7791C22.3998 13.0902 23.7232 12.6189 25.1373 12.3651C25.4636 12.9452 25.8443 13.3984 26.2794 13.7248C26.7145 14.0511 27.1315 14.3774 27.5303 14.7037C27.9654 15.03 28.3462 15.4289 28.6725 15.9002C29.0351 16.3716 29.2889 17.0243 29.4339 17.8582C29.724 19.4173 29.724 20.8858 29.4339 22.2636C29.1801 23.6414 28.7994 25.0736 28.2918 26.5602C28.0017 27.4304 27.7298 28.3187 27.476 29.2251C27.2584 30.1316 27.1496 31.0562 27.1496 31.9989L27.5303 32.1077C27.8567 31.6726 28.2193 31.4006 28.6181 31.2919C29.0532 31.1831 29.4883 31.1106 29.9234 31.0743C30.3585 31.0381 30.7755 30.9837 31.1743 30.9111C31.6094 30.8024 31.972 30.5304 32.2621 30.0953C32.7334 30.2766 33.1685 30.2948 33.5673 30.1497C34.0024 29.9684 34.4194 29.7328 34.8183 29.4427C35.2171 29.1526 35.6159 28.8444 36.0148 28.5181C36.4136 28.1918 36.8306 27.9742 37.2657 27.8655L37.2113 27.4304C37.8639 26.9953 38.4259 26.6871 38.8973 26.5058C39.3687 26.3245 39.8038 26.1432 40.2026 25.9619C40.6014 25.7806 41.0003 25.5268 41.3991 25.2005C41.798 24.8742 42.2512 24.3303 42.7588 23.5689C42.9401 23.4963 43.1395 23.4782 43.3571 23.5145C43.6109 23.5145 43.7922 23.6051 43.9009 23.7864ZM24.9198 18.4021C24.7385 18.3295 24.539 18.2752 24.3215 18.2389C24.1402 18.1664 23.9589 18.0757 23.7776 17.967C23.4513 17.7494 23.1431 17.5863 22.853 17.4775C22.563 17.3687 22.2185 17.405 21.8197 17.5863V17.695H21.7653C19.9161 19.1091 18.1939 20.6682 16.5985 22.3723C15.0394 24.0402 13.3896 25.6718 11.6492 27.2672L11.1598 26.7777C10.906 27.104 10.7609 27.4485 10.7247 27.8111C10.7247 28.1737 10.7247 28.5181 10.7247 28.8444C10.7247 29.1708 10.6884 29.479 10.6159 29.769C10.5434 30.0591 10.3258 30.331 9.96324 30.5848L9.80008 30.6936C9.94511 31.2012 10.1445 31.5275 10.3983 31.6726C10.6884 31.7813 10.9785 31.8357 11.2685 31.8357C11.5949 31.7995 11.9031 31.7632 12.1931 31.727C12.4832 31.6907 12.7189 31.7451 12.9002 31.8901C13.0089 31.9626 13.0814 32.0714 13.1177 32.2164C13.154 32.3615 13.1721 32.4884 13.1721 32.5972C13.3534 32.5972 13.5347 32.5972 13.716 32.5972C13.9335 32.5972 14.1511 32.579 14.3686 32.5428C14.7675 32.4703 15.1844 32.4703 15.6195 32.5428C16.0909 32.579 16.3628 32.851 16.4353 33.3586C17.1605 33.0685 17.9038 32.7603 18.6652 32.434C19.4266 32.1077 20.043 31.5819 20.5144 30.8568L20.8951 31.2375C20.9314 31.2375 20.9495 31.2375 20.9495 31.2375C20.9857 31.2012 21.022 31.1831 21.0583 31.1831C21.9647 30.6392 22.6717 29.8415 23.1794 28.79C23.7232 27.7386 24.1221 26.5964 24.3759 25.3636C24.6297 24.1309 24.7747 22.8981 24.811 21.6653C24.8835 20.4325 24.9198 19.3448 24.9198 18.4021Z" fill="#0015FF"/>
<path d="M53.2556 3.44555C52.6029 3.69935 52.2403 4.08006 52.1678 4.58768C52.0953 5.09529 52.059 5.62104 52.059 6.16491C52.0953 6.70879 52.0772 7.2164 52.0047 7.68776C51.9321 8.15911 51.5696 8.46731 50.9169 8.61234C50.6631 8.17724 50.3368 7.7784 49.9379 7.41582C49.5754 7.01698 49.2128 6.63627 48.8502 6.27369C48.4876 5.87485 48.1975 5.45788 47.98 5.02278C47.7624 4.58768 47.6899 4.06194 47.7624 3.44555L50.4818 0.29108C50.9169 0.436113 51.2614 0.617404 51.5152 0.834954C51.769 1.0525 51.9865 1.30631 52.1678 1.59638C52.3491 1.88644 52.5123 2.19464 52.6573 2.52096C52.8386 2.81103 53.038 3.11922 53.2556 3.44555ZM63.8067 27.8111C63.843 28.6088 63.7704 29.1708 63.5892 29.4971C63.4441 29.8234 63.2628 30.0953 63.0453 30.3129C62.8277 30.4942 62.6283 30.7117 62.447 30.9655C62.302 31.1831 62.2295 31.5819 62.2295 32.1621C61.3955 33.0685 60.7248 33.7393 60.2171 34.1744C59.7095 34.5732 59.22 34.9177 58.7487 35.2077C58.2773 35.4616 57.7516 35.7516 57.1714 36.0779C56.5913 36.4043 55.7936 36.9119 54.7784 37.6008L54.3977 37.6552C54.2889 38.1991 54.0895 38.5072 53.7994 38.5798C53.5456 38.6885 53.2374 38.7429 52.8748 38.7429C52.5485 38.7429 52.2222 38.7792 51.8959 38.8517C51.5696 38.9242 51.2976 39.2324 51.0801 39.7763C50.4637 39.9576 49.9379 40.0301 49.5028 39.9938C49.0677 39.9576 48.5057 39.9394 47.8168 39.9394C47.5993 39.9394 47.3092 39.9213 46.9466 39.8851C46.6203 39.8488 46.3484 39.8669 46.1308 39.9394C45.9858 39.9757 45.8226 40.0664 45.6413 40.2114C45.4963 40.3927 45.3331 40.5377 45.1518 40.6465C44.9706 40.7553 44.7893 40.7915 44.608 40.7553C44.4267 40.7553 44.2635 40.6102 44.1185 40.3202C43.6834 40.4289 43.2845 40.4289 42.922 40.3202C42.5594 40.2114 42.2149 40.0301 41.8886 39.7763C41.5623 39.5225 41.2541 39.2143 40.964 38.8517C40.7102 38.5254 40.4564 38.2172 40.2026 37.9271C40.0213 37.7096 39.8219 37.5101 39.6043 37.3289C39.3868 37.1476 39.1874 36.9663 39.0061 36.785C38.6072 36.3861 38.3172 35.8785 38.1359 35.2621C37.9546 34.6457 37.8458 34.0112 37.8096 33.3586C37.7733 32.7059 37.7914 32.0533 37.8639 31.4006C37.9365 30.748 38.0452 30.1679 38.1903 29.6602C38.5166 29.3339 38.7523 28.9713 38.8973 28.5725C39.0061 28.1374 39.0967 27.7023 39.1692 27.2672C39.278 26.8321 39.3868 26.4151 39.4956 26.0163C39.6406 25.5812 39.8763 25.2005 40.2026 24.8742C40.2026 24.4028 40.2751 23.9677 40.4202 23.5689C40.6014 23.17 40.819 22.7893 41.0728 22.4267C41.3629 22.0641 41.6711 21.7378 41.9974 21.4478C42.36 21.1214 42.6863 20.8132 42.9764 20.5232C43.2664 20.5232 43.5565 20.5232 43.8465 20.5232C44.1366 20.4869 44.4086 20.505 44.6624 20.5776C44.9162 20.6138 45.1337 20.7226 45.315 20.9039C45.4963 21.0489 45.6413 21.3027 45.7501 21.6653C46.0039 22.6443 45.9314 23.442 45.5326 24.0583C45.17 24.6385 44.753 25.2005 44.2817 25.7444C43.8103 26.2882 43.4296 26.8502 43.1395 27.4304C42.8494 28.0105 42.922 28.7538 43.3571 29.6602C42.9582 29.6602 42.6863 29.769 42.5413 29.9866C42.4325 30.2041 42.3418 30.4579 42.2693 30.748C42.2331 31.0018 42.1605 31.2556 42.0518 31.5094C41.943 31.7632 41.7254 31.9445 41.3991 32.0533C41.6167 32.2708 41.7254 32.6515 41.7254 33.1954C41.7617 33.7393 41.8161 34.265 41.8886 34.7727C41.9974 35.244 42.1605 35.6247 42.3781 35.9148C42.6319 36.2048 43.0851 36.223 43.7378 35.9692C44.2091 36.368 44.7711 36.5312 45.4238 36.4587C46.1127 36.3861 46.7472 36.368 47.3273 36.4043C47.835 36.0779 48.2701 35.9148 48.6326 35.9148C48.9952 35.8785 49.3397 35.9148 49.666 36.0236C49.9923 36.0961 50.3368 36.1686 50.6994 36.2411C51.0619 36.3136 51.497 36.2592 52.0047 36.0779C52.1497 35.4616 52.4035 35.099 52.7661 34.9902C53.1287 34.8814 53.4912 34.827 53.8538 34.827C54.2164 34.7908 54.5427 34.7183 54.8328 34.6095C55.1591 34.5007 55.3767 34.1381 55.4854 33.5217C55.7755 33.1592 56.12 32.9597 56.5188 32.9235C56.9176 32.851 57.3165 32.7785 57.7153 32.7059C58.1504 32.6334 58.5311 32.4884 58.8575 32.2708C59.22 32.017 59.4738 31.5457 59.6189 30.8568C60.2353 30.3854 60.6704 30.041 60.9242 29.8234C61.2142 29.5696 61.4499 29.3702 61.6312 29.2251C61.8125 29.0801 62.0482 28.9169 62.3382 28.7357C62.6283 28.5544 63.1178 28.2462 63.8067 27.8111Z" fill="#0015FF"/>
<path d="M98.6146 21.8285C98.2158 22.3361 97.9076 22.8981 97.69 23.5145C97.4725 24.1309 97.2005 24.711 96.8742 25.2549C96.5841 25.7987 96.2034 26.252 95.7321 26.6146C95.297 26.9771 94.6806 27.1403 93.8829 27.104C93.3028 27.3216 92.8677 27.7204 92.5776 28.3006C92.3238 28.8444 92.07 29.4064 91.8162 29.9866C91.5624 30.5304 91.236 30.9837 90.8372 31.3462C90.4384 31.6726 89.8401 31.7088 89.0424 31.455C88.0272 31.8901 87.1026 32.4703 86.2687 33.1954C85.471 33.8843 84.7096 34.6095 83.9844 35.3709C83.7306 35.6247 83.4405 35.951 83.1142 36.3499C82.7879 36.7125 82.4797 36.9844 82.1896 37.1657C81.9358 37.3107 81.682 37.3289 81.4282 37.2201C81.1744 37.1113 80.9387 37.0025 80.7212 36.8938C80.5036 36.7487 80.2861 36.6762 80.0685 36.6762C79.8872 36.6762 79.7241 36.8394 79.579 37.1657C79.8328 37.6733 79.8872 38.0178 79.7422 38.1991C79.5972 38.4166 79.3615 38.5798 79.0352 38.6885C78.7088 38.7973 78.3644 38.888 78.0018 38.9605C77.6392 39.033 77.3492 39.1599 77.1316 39.3412C76.6965 39.74 76.3883 40.2295 76.207 40.8096C76.0257 41.3898 75.8626 41.9699 75.7175 42.55C75.5725 43.1302 75.3549 43.674 75.0649 44.1817C74.8111 44.7255 74.376 45.1425 73.7596 45.4326C74.1222 45.6864 74.2672 45.9402 74.1947 46.194C74.1584 46.4478 74.0678 46.7016 73.9227 46.9554C73.7777 47.2455 73.6689 47.5174 73.5964 47.7712C73.5602 48.025 73.7052 48.2788 74.0315 48.5326C73.4876 49.2216 72.9982 49.9648 72.5631 50.7625C72.1642 51.5602 71.7654 52.3579 71.3665 53.1556C70.9677 53.9895 70.5326 54.7872 70.0612 55.5486C69.6261 56.3463 69.0641 57.0533 68.3752 57.6697L68.5384 58.975C67.9945 58.83 67.6501 58.8481 67.505 59.0294C67.3963 59.2107 67.3419 59.4645 67.3419 59.7908C67.3419 60.1171 67.3419 60.4435 67.3419 60.7698C67.3781 61.1324 67.2694 61.4043 67.0156 61.5856C66.9068 61.7306 66.7799 61.8394 66.6348 61.9119C66.5261 61.9844 66.4173 62.0751 66.3085 62.1839C65.1483 63.0541 64.3506 64.1599 63.9155 65.5015C63.843 65.719 63.7886 65.9366 63.7523 66.1541C63.7161 66.3717 63.6617 66.6074 63.5892 66.8612C63.4079 67.3688 63.1178 67.8945 62.719 68.4384C62.3201 68.9823 61.885 69.5443 61.4137 70.1244C60.9423 70.7045 60.4891 71.3028 60.054 71.9192C59.6189 72.5718 59.2744 73.2245 59.0206 73.8771C58.4405 73.8046 57.9873 73.859 57.6609 74.0403C57.2984 74.2579 57.0083 74.5298 56.7907 74.8561C56.5732 75.2187 56.3919 75.5994 56.2469 75.9982C56.1018 76.3971 55.9205 76.7415 55.703 77.0316C55.4492 77.3579 55.141 77.5936 54.7784 77.7386C54.3796 77.9199 53.8719 77.9199 53.2556 77.7386L50.8081 79.9685C50.373 79.7147 49.9561 79.6603 49.5572 79.8054C49.1221 79.9504 48.7052 80.1498 48.3063 80.4036C47.8712 80.6574 47.4542 80.8569 47.0554 81.0019C46.6203 81.1469 46.1671 81.0925 45.6957 80.8387C45.4419 81.1288 45.2244 81.2738 45.0431 81.2738C44.8618 81.3101 44.6442 81.1651 44.3904 80.8387L43.5746 81.7089C43.1395 81.3463 42.6138 81.0019 41.9974 80.6756C41.3447 80.3855 40.7465 80.041 40.2026 79.6422C39.6587 79.2796 39.2236 78.8445 38.8973 78.3369C38.571 77.8656 38.5166 77.2492 38.7341 76.4877C38.6616 76.2702 38.5528 76.0345 38.4078 75.7807C38.2265 75.5269 38.0815 75.255 37.9727 74.9649C37.8639 74.7111 37.7914 74.4391 37.7552 74.1491C37.7189 73.8953 37.7914 73.6596 37.9727 73.442C37.6464 72.8257 37.5376 72.1911 37.6464 71.5385C37.7189 70.9221 37.8458 70.3057 38.0271 69.6893C38.2084 69.0729 38.3534 68.4565 38.4622 67.8402C38.571 67.2238 38.4622 66.6074 38.1359 65.991C38.571 65.6647 38.8973 65.2477 39.1149 64.7401C39.2961 64.2325 39.4774 63.7067 39.6587 63.1628C39.8038 62.619 39.9669 62.0932 40.1482 61.5856C40.3295 61.078 40.6377 60.661 41.0728 60.3347L41.0184 59.4645C42.7225 57.6516 44.5355 55.9837 46.4571 54.4609C48.3426 52.9743 50.4818 51.8684 52.8748 51.1432C53.3462 50.3093 53.9626 49.6929 54.724 49.2941C55.4854 48.9315 56.265 48.587 57.0627 48.2607C57.8241 47.9706 58.5311 47.5899 59.1838 47.1186C59.8364 46.6835 60.3259 45.9764 60.6522 44.9975C60.8335 45.3963 61.0148 45.5595 61.1961 45.487C61.3774 45.4507 61.5587 45.3601 61.74 45.215C61.9575 45.1062 62.157 45.0156 62.3382 44.9431C62.5195 44.9068 62.7008 45.07 62.8821 45.4326C63.2447 44.3448 63.8248 43.4746 64.6225 42.822C65.4565 42.1693 66.3629 41.5892 67.3419 41.0816C68.3571 40.6102 69.3723 40.1389 70.3876 39.6675C71.4028 39.2324 72.2911 38.6885 73.0526 38.0359C73.8502 37.3832 74.4485 36.5856 74.8473 35.6428C75.2462 34.6639 75.3368 33.413 75.1193 31.8901C75.4456 31.6726 75.6631 31.4006 75.7719 31.0743C75.8807 30.7117 75.9532 30.3491 75.9895 29.9866C76.062 29.624 76.1526 29.2977 76.2614 29.0076C76.3702 28.7175 76.6059 28.5181 76.9684 28.4093C76.7146 28.0105 76.4064 27.8292 76.0439 27.8655C75.6813 27.9017 75.3006 28.0105 74.9017 28.1918C74.5391 28.3731 74.1947 28.5544 73.8684 28.7357C73.542 28.9169 73.2701 28.9532 73.0526 28.8444C72.9438 29.352 72.7081 29.7146 72.3455 29.9322C72.0192 30.1497 71.6566 30.3491 71.2578 30.5304C70.8589 30.6755 70.442 30.8386 70.0069 31.0199C69.5718 31.2012 69.2273 31.4913 68.9735 31.8901C68.6472 31.7451 68.339 31.8176 68.0489 32.1077C67.7951 32.3615 67.5232 32.6515 67.2331 32.9779C66.9793 33.2679 66.6892 33.4855 66.3629 33.6305C66.0366 33.7756 65.6559 33.6305 65.2208 33.1954C65.0032 33.7756 64.6406 34.1563 64.133 34.3376C63.6617 34.5188 63.1359 34.6095 62.5558 34.6095C61.9757 34.6095 61.3774 34.5732 60.761 34.5007C60.1809 34.4282 59.6551 34.4463 59.1838 34.5551L58.2592 33.6305C58.1867 33.8118 58.0779 33.9568 57.9329 34.0656C57.7516 34.1744 57.5703 34.1925 57.389 34.12C57.0989 33.5036 56.827 32.851 56.5732 32.1621C56.2831 31.4369 56.1018 30.7299 56.0293 30.041C55.9205 29.3158 55.9749 28.6269 56.1925 27.9742C56.41 27.2853 56.8451 26.6871 57.4978 26.1795C58.513 24.3303 59.8364 22.88 61.468 21.8285C61.6493 21.9735 61.8488 22.0279 62.0663 21.9916C62.2839 21.9191 62.5014 21.8285 62.719 21.7197C62.9728 21.5747 63.2084 21.4296 63.426 21.2846C63.6435 21.1033 63.843 20.9945 64.0243 20.9583C64.133 20.5594 64.3325 20.1787 64.6225 19.8161C64.9488 19.4536 65.2933 19.1272 65.6559 18.8372C66.0547 18.5471 66.4536 18.2933 66.8524 18.0757C67.2875 17.8219 67.6863 17.6044 68.0489 17.4231C68.7378 17.0968 69.3723 16.6979 69.9525 16.2266C70.5689 15.719 71.1852 15.2476 71.8016 14.8125C72.418 14.3411 73.0526 13.9423 73.7052 13.616C74.3578 13.2897 75.1011 13.1265 75.9351 13.1265L76.914 13.9967C76.2977 14.3593 75.7538 14.8125 75.2824 15.3564C74.8473 15.864 74.3941 16.3897 73.9227 16.9336C73.4514 17.4412 72.9438 17.9126 72.3999 18.3477C71.856 18.7828 71.1852 19.0728 70.3876 19.2179C69.7349 20.4869 68.8466 21.5747 67.7226 22.4811C66.6348 23.3513 65.5108 24.1671 64.3506 24.9285C64.3506 25.4724 64.1874 25.9075 63.8611 26.2338C63.5348 26.5602 63.1541 26.8502 62.719 27.104C62.2839 27.3578 61.8488 27.5935 61.4137 27.8111C60.9786 27.9924 60.616 28.2462 60.3259 28.5725C60.0721 28.8626 59.9452 29.2433 59.9452 29.7146C59.9452 30.1497 60.1809 30.7299 60.6522 31.455C61.0873 31.2375 61.6131 31.0924 62.2295 31.0199C62.8459 30.9474 63.4441 30.8568 64.0243 30.748C64.6044 30.603 65.112 30.4035 65.5471 30.1497C66.0185 29.8597 66.3448 29.4246 66.5261 28.8444C67.0337 28.4093 67.5776 28.1374 68.1577 28.0286C68.7378 27.9198 69.3361 27.9017 69.9525 27.9742C71.149 26.6689 72.3455 25.4724 73.542 24.3847C74.7748 23.2607 75.9351 22.1185 77.0228 20.9583C78.1106 19.798 79.1077 18.5652 80.0141 17.2599C80.9568 15.9184 81.7727 14.3774 82.4616 12.637C83.1867 12.4195 83.8394 12.5101 84.4195 12.9089C84.9996 13.3078 85.4166 13.8154 85.6704 14.4318C85.5979 14.8669 85.471 15.2839 85.2897 15.6827C85.1447 16.0453 84.9996 16.4079 84.8546 16.7704C84.7458 17.0968 84.6552 17.4593 84.5827 17.8582C84.5464 18.257 84.6189 18.7103 84.8002 19.2179C84.5101 19.1454 84.2745 19.236 84.0932 19.4898C83.9481 19.7436 83.785 19.9612 83.6037 20.1425C83.7125 20.6138 83.6943 21.0489 83.5493 21.4478C83.4043 21.8103 83.223 22.1729 83.0054 22.5355C82.7879 22.8618 82.5885 23.2244 82.4072 23.6232C82.2621 24.0221 82.2259 24.4572 82.2984 24.9285C81.7908 25.8713 81.4101 26.8684 81.1563 27.9198C80.9387 28.9351 80.7937 29.9684 80.7212 31.0199L81.7001 31.8901C82.1715 31.2012 82.7516 30.7117 83.4405 30.4217C84.1657 30.1316 84.8909 29.8959 85.616 29.7146C86.3412 29.4971 87.0482 29.2614 87.7371 29.0076C88.426 28.7175 89.0243 28.228 89.5319 27.5391C89.7495 26.4876 90.2027 25.7444 90.8916 25.3093C91.5805 24.8379 92.3057 24.4391 93.0671 24.1127C93.8285 23.7864 94.5537 23.4238 95.2426 23.025C95.9678 22.5899 96.4754 21.901 96.7654 20.9583H98.1251C98.0526 21.1396 98.0889 21.3027 98.2339 21.4478C98.3789 21.5928 98.5058 21.7197 98.6146 21.8285ZM68.5384 45.9221C68.1758 46.1396 67.777 46.339 67.3419 46.5203C66.9068 46.7016 66.4717 46.901 66.0366 47.1186C65.6015 47.3361 65.2026 47.5899 64.8401 47.88C64.4775 48.1701 64.2055 48.5326 64.0243 48.9677C63.6254 48.7502 63.2447 48.7321 62.8821 48.9134C62.5558 49.1309 62.2295 49.3666 61.9031 49.6204C61.5768 49.9105 61.2324 50.1461 60.8698 50.3274C60.5435 50.5087 60.1809 50.4906 59.782 50.273C59.0931 50.7081 58.4405 51.1795 57.8241 51.6871C57.1714 52.1947 56.5188 52.6842 55.8662 53.1556C55.2135 53.6632 54.5427 54.1164 53.8538 54.5153C53.1287 54.9504 52.3672 55.2767 51.5696 55.4942C51.1707 56.1469 50.645 56.6545 49.9923 57.0171C49.3397 57.4159 48.687 57.7966 48.0344 58.1592C47.3455 58.5218 46.7291 58.9569 46.1852 59.4645C45.6413 59.9721 45.2969 60.6791 45.1518 61.5856C44.0278 62.3108 43.2664 63.2354 42.8676 64.3594C42.4325 65.5196 42.1968 66.7343 42.1605 68.0033C42.1243 69.3086 42.1787 70.6139 42.3237 71.9192C42.4687 73.2608 42.5413 74.4754 42.5413 75.5632C43.0126 76.107 43.484 76.4877 43.9553 76.7053C44.4267 76.9228 44.9162 77.0316 45.4238 77.0316C45.9314 77.0316 46.4571 76.9591 47.001 76.8141C47.5086 76.7053 48.0706 76.5965 48.687 76.4877C48.8321 75.9439 49.104 75.5813 49.5028 75.4C49.8654 75.255 50.2643 75.1462 50.6994 75.0737C51.0982 75.0011 51.4789 74.8924 51.8415 74.7473C52.1678 74.6386 52.3491 74.3485 52.3854 73.8771L52.8748 74.3122C52.9111 73.7321 53.0743 73.2426 53.3643 72.8438C53.6544 72.4812 53.9989 72.1368 54.3977 71.8104C54.7965 71.4841 55.2316 71.1759 55.703 70.8858C56.1381 70.5958 56.5188 70.2695 56.8451 69.9069C56.7726 69.218 56.8995 68.6378 57.2258 68.1665C57.5522 67.6951 57.9147 67.26 58.3136 66.8612C58.7124 66.4623 59.075 66.0272 59.4013 65.5559C59.6914 65.0845 59.8002 64.4863 59.7277 63.7611C60.0902 63.6161 60.344 63.3804 60.4891 63.0541C60.6341 62.7277 60.7791 62.4195 60.9242 62.1295C61.0692 61.8394 61.2505 61.6219 61.468 61.4768C61.7219 61.3318 62.1026 61.3681 62.6102 61.5856C62.1026 61.1868 61.885 60.8786 61.9575 60.661C62.0663 60.4435 62.2476 60.2441 62.5014 60.0628C62.7552 59.9177 62.9909 59.7364 63.2084 59.5189C63.426 59.3013 63.426 58.975 63.2084 58.5399C64.0786 58.1773 64.6406 57.6516 64.8944 56.9627C65.1483 56.2738 65.3296 55.5305 65.4383 54.7328C65.5834 53.9714 65.7828 53.21 66.0366 52.4485C66.2904 51.7234 66.8524 51.1432 67.7226 50.7081C67.6501 50.0555 67.7589 49.4754 68.0489 48.9677C68.3752 48.4964 68.6834 48.0432 68.9735 47.6081C69.2998 47.173 69.5174 46.7197 69.6261 46.2484C69.7712 45.777 69.6443 45.215 69.2454 44.5624L68.5384 45.9221Z" fill="#0015FF"/>
<path d="M125.101 35.4253C125.137 35.8604 125.065 36.1867 124.884 36.4043C124.702 36.6218 124.449 36.785 124.122 36.8938C123.832 37.0025 123.506 37.0932 123.143 37.1657C122.781 37.202 122.473 37.2926 122.219 37.4376C121.167 37.3289 120.152 37.1838 119.173 37.0025C118.194 36.785 117.288 36.4768 116.454 36.0779C115.62 35.6428 114.858 35.0808 114.169 34.3919C113.517 33.703 112.955 32.8328 112.483 31.7813C112.955 31.0199 113.118 30.186 112.973 29.2795C112.828 28.3368 112.683 27.4304 112.538 26.5602C112.429 25.69 112.447 24.8923 112.592 24.1671C112.773 23.442 113.408 22.8618 114.496 22.4267C114.423 22.0279 114.423 21.5928 114.496 21.1214C114.604 20.6501 114.478 20.2512 114.115 19.9249C112.846 20.36 111.74 20.9764 110.797 21.7741C109.855 22.5718 108.948 23.442 108.078 24.3847C107.244 25.3274 106.392 26.2882 105.522 27.2672C104.688 28.2099 103.763 29.0439 102.748 29.769C102.277 29.8053 101.769 29.7871 101.225 29.7146C100.718 29.6059 100.282 29.7509 99.9199 30.1497C99.9562 30.4035 100.047 30.6211 100.192 30.8024C100.337 30.9837 100.446 31.165 100.518 31.3462C100.627 31.5275 100.681 31.727 100.681 31.9445C100.681 32.1258 100.554 32.3433 100.301 32.5972C99.938 32.9597 99.5392 33.2679 99.1041 33.5217C98.7052 33.7393 98.3064 33.9931 97.9076 34.2832C97.545 34.537 97.2368 34.8452 96.983 35.2077C96.7292 35.5703 96.6023 36.0598 96.6023 36.6762C96.3847 36.5674 96.1853 36.5493 96.004 36.6218C95.8227 36.6581 95.6596 36.7487 95.5145 36.8938C95.3332 37.0388 95.1701 37.202 95.025 37.3832C94.88 37.5645 94.735 37.7096 94.5899 37.8183C94.5174 37.9996 94.5355 38.1447 94.6443 38.2534C94.7531 38.3985 94.88 38.5435 95.025 38.6885C94.88 39.0874 94.6987 39.3231 94.4812 39.3956C94.2274 39.5043 93.9735 39.5225 93.7197 39.45C93.4297 39.3774 93.1577 39.2505 92.9039 39.0693C92.6139 38.9242 92.3601 38.7973 92.1425 38.6885C92.0337 38.2172 91.9612 37.6733 91.925 37.0569C91.8887 36.4405 91.9068 35.8423 91.9793 35.2621C92.0519 34.6457 92.1969 34.0656 92.4144 33.5217C92.632 32.9779 92.9583 32.5246 93.3934 32.1621C93.5384 32.0533 93.6291 31.9989 93.6654 31.9989C93.7016 31.9626 93.7197 31.9445 93.7197 31.9445C93.7197 31.9445 93.7379 31.9445 93.7741 31.9445C93.8104 31.9083 93.8829 31.8357 93.9917 31.727C94.2817 31.4006 94.4812 31.0562 94.5899 30.6936C94.6987 30.2948 94.7894 29.8959 94.8619 29.4971C94.9344 29.0982 95.0432 28.7175 95.1882 28.3549C95.297 27.9561 95.5145 27.6117 95.8408 27.3216C95.6958 26.7415 95.6958 26.2338 95.8408 25.7987C96.0221 25.3274 96.2397 24.8923 96.4935 24.4934C96.7836 24.0583 97.0555 23.6414 97.3093 23.2425C97.5994 22.8074 97.7807 22.3361 97.8532 21.8285C97.8894 21.6472 97.8894 21.484 97.8532 21.339C97.8532 21.1577 97.8532 20.9764 97.8532 20.7951C97.7807 20.215 97.835 19.7799 98.0163 19.4898C98.2339 19.1635 98.4877 18.9097 98.7778 18.7284C99.1041 18.5108 99.4304 18.2933 99.7567 18.0757C100.119 17.8582 100.428 17.5319 100.681 17.0968C101.733 17.6044 102.349 18.2933 102.53 19.1635C102.748 19.9974 102.821 20.9401 102.748 21.9916C102.132 22.3905 101.66 22.9525 101.334 23.6776C101.008 24.3665 100.79 25.0373 100.681 25.69C100.754 25.9075 100.844 26.0344 100.953 26.0707C101.098 26.0707 101.243 26.0525 101.388 26.0163C101.57 25.9438 101.733 25.8713 101.878 25.7987C102.023 25.7262 102.168 25.69 102.313 25.69C103.618 24.7835 104.905 23.7683 106.174 22.6443C107.48 21.5203 108.495 20.2331 109.22 18.7828C110.272 18.2752 111.269 17.695 112.211 17.0424C113.154 16.3535 114.188 15.8459 115.312 15.5195L116.562 14.2686C116.744 14.5587 116.961 14.6312 117.215 14.4862C117.469 14.3049 117.723 14.1055 117.976 13.8879C118.23 13.6704 118.466 13.5435 118.684 13.5072C118.937 13.4709 119.173 13.7248 119.391 14.2686C119.753 15.2113 119.844 16.1359 119.662 17.0424C119.481 17.9126 119.191 18.7828 118.792 19.653C118.43 20.4869 118.049 21.339 117.65 22.2092C117.251 23.0794 117.016 23.9677 116.943 24.8742C116.943 25.0917 116.943 25.3274 116.943 25.5812C116.943 25.7987 116.925 26.0344 116.889 26.2882C116.816 27.0497 116.707 27.8836 116.562 28.79C116.454 29.6602 116.508 30.4579 116.726 31.1831C116.907 31.8357 117.288 32.4159 117.868 32.9235C118.448 33.4311 118.955 33.9387 119.391 34.4463C119.644 34.4101 119.898 34.4282 120.152 34.5007C120.406 34.5732 120.641 34.6457 120.859 34.7183C121.113 34.7908 121.349 34.827 121.566 34.827C121.784 34.7908 122.001 34.6639 122.219 34.4463C122.473 34.3376 122.708 34.3557 122.926 34.5007C123.18 34.6095 123.415 34.7545 123.633 34.9358C123.85 35.1171 124.068 35.2803 124.285 35.4253C124.539 35.5341 124.811 35.5341 125.101 35.4253Z" fill="#0015FF"/>
<path d="M134.396 37.4835V35.8684C133.995 35.8684 133.717 35.4971 133.561 34.7545C133.412 34.012 133.338 32.6531 133.338 30.6778C133.338 28.5393 133.416 27.1506 133.572 26.512C133.728 25.8734 134.01 25.5541 134.418 25.5541C134.827 25.5541 135.102 25.8697 135.243 26.5009C135.391 27.1321 135.465 28.3685 135.465 30.21L135.61 29.9761H133.115V31.4353H137.693C137.701 31.1976 137.704 30.9452 137.704 30.6778C137.704 28.4576 137.589 26.7794 137.359 25.6432C137.136 24.4997 136.156 23.9279 134.418 23.9279C132.688 23.9279 131.704 24.5071 131.467 25.6655C131.229 26.8165 131.11 28.4873 131.11 30.6778C131.11 32.6605 131.225 34.2904 131.456 35.5677C131.693 36.8449 132.673 37.4835 134.396 37.4835ZM134.396 35.8684V37.4835C135.25 37.4835 135.892 37.335 136.323 37.0379C136.761 36.7335 137.081 36.2323 137.281 35.5342C137.482 34.8288 137.597 33.8895 137.626 32.7162L135.454 32.5603C135.417 33.2583 135.361 33.8895 135.287 34.4538C135.22 35.0182 135.113 35.3969 134.964 35.5899C134.816 35.7756 134.626 35.8684 134.396 35.8684Z" fill="#0015FF"/>
<path d="M140.001 37.3832H143.454L145.147 24.0504H142.819L141.749 35.835H141.716L140.647 24.0504H138.308L140.001 37.3832Z" fill="#0015FF"/>
<path d="M148.972 37.4835V35.8684C148.571 35.8684 148.293 35.4971 148.137 34.7545C147.988 34.012 147.914 32.6531 147.914 30.6778C147.914 28.5393 147.992 27.1506 148.148 26.512C148.304 25.8734 148.586 25.5541 148.994 25.5541C149.403 25.5541 149.677 25.8697 149.818 26.5009C149.967 27.1321 150.041 28.3685 150.041 30.21L150.186 29.9761H147.691V31.4353H152.269C152.276 31.1976 152.28 30.9452 152.28 30.6778C152.28 28.4576 152.165 26.7794 151.935 25.6432C151.712 24.4997 150.732 23.9279 148.994 23.9279C147.264 23.9279 146.28 24.5071 146.043 25.6655C145.805 26.8165 145.686 28.4873 145.686 30.6778C145.686 32.6605 145.801 34.2904 146.031 35.5677C146.269 36.8449 147.249 37.4835 148.972 37.4835ZM148.972 35.8684V37.4835C149.826 37.4835 150.468 37.335 150.899 37.0379C151.337 36.7335 151.656 36.2323 151.857 35.5342C152.057 34.8288 152.172 33.8895 152.202 32.7162L150.03 32.5603C149.993 33.2583 149.937 33.8895 149.863 34.4538C149.796 35.0182 149.689 35.3969 149.54 35.5899C149.392 35.7756 149.202 35.8684 148.972 35.8684Z" fill="#0015FF"/>
<path d="M157.269 30.4105H159.486C159.486 28.2125 159.408 26.5863 159.252 25.5319C159.103 24.47 158.495 23.939 157.425 23.939C156.623 23.939 155.951 24.2212 155.409 24.7856C154.875 25.3499 154.607 26.1705 154.607 27.2472L155.454 27.5925C155.454 27.1469 155.543 26.7014 155.721 26.2559C155.899 25.8029 156.152 25.5764 156.478 25.5764C156.798 25.5764 157.009 25.8734 157.113 26.4675C157.217 27.0615 157.269 28.3759 157.269 30.4105ZM153.237 37.3832H155.465V25.8326L154.93 24.0616H153.237V37.3832Z" fill="#0015FF"/>
<path d="M161.652 37.3832H164.704L166.007 24.0616H164.537L163.278 35.8016L162.632 24.0616H160.282L161.652 37.3832ZM166.765 37.3832H169.783L171.153 24.0616H168.77L168.179 35.7904L166.987 24.0616H165.473L166.765 37.3832Z" fill="#0015FF"/>
<path d="M171.946 37.3832H174.174V19.8958H171.946V37.3832ZM176.068 37.3832H178.284V29.3746C178.284 27.8524 178.203 26.5677 178.039 25.5207C177.876 24.4737 177.256 23.9502 176.179 23.9502C175.266 23.9502 174.519 24.3178 173.94 25.0529C173.368 25.7806 173.083 26.6494 173.083 27.6593L174.163 28.0157C174.163 27.3252 174.259 26.7497 174.453 26.2893C174.653 25.8215 174.913 25.5875 175.232 25.5875C175.566 25.5875 175.789 25.8512 175.901 26.3784C176.012 26.8982 176.068 27.9006 176.068 29.3858V37.3832Z" fill="#0015FF"/>
<path d="M182.453 37.4835V35.8684C182.052 35.8684 181.773 35.4971 181.617 34.7545C181.469 34.012 181.395 32.6531 181.395 30.6778C181.395 28.5393 181.473 27.1506 181.629 26.512C181.784 25.8734 182.067 25.5541 182.475 25.5541C182.883 25.5541 183.158 25.8697 183.299 26.5009C183.448 27.1321 183.522 28.3685 183.522 30.21L183.667 29.9761H181.172V31.4353H185.75C185.757 31.1976 185.761 30.9452 185.761 30.6778C185.761 28.4576 185.646 26.7794 185.416 25.6432C185.193 24.4997 184.213 23.9279 182.475 23.9279C180.745 23.9279 179.761 24.5071 179.523 25.6655C179.286 26.8165 179.167 28.4873 179.167 30.6778C179.167 32.6605 179.282 34.2904 179.512 35.5677C179.75 36.8449 180.73 37.4835 182.453 37.4835ZM182.453 35.8684V37.4835C183.307 37.4835 183.949 37.335 184.38 37.0379C184.818 36.7335 185.137 36.2323 185.338 35.5342C185.538 34.8288 185.653 33.8895 185.683 32.7162L183.511 32.5603C183.474 33.2583 183.418 33.8895 183.344 34.4538C183.277 35.0182 183.169 35.3969 183.021 35.5899C182.872 35.7756 182.683 35.8684 182.453 35.8684Z" fill="#0015FF"/>
<path d="M190.75 30.4105H192.967C192.967 28.2125 192.889 26.5863 192.733 25.5319C192.584 24.47 191.975 23.939 190.906 23.939C190.104 23.939 189.432 24.2212 188.89 24.7856C188.355 25.3499 188.088 26.1705 188.088 27.2472L188.935 27.5925C188.935 27.1469 189.024 26.7014 189.202 26.2559C189.38 25.8029 189.633 25.5764 189.959 25.5764C190.279 25.5764 190.49 25.8734 190.594 26.4675C190.698 27.0615 190.75 28.3759 190.75 30.4105ZM186.718 37.3832H188.946V25.8326L188.411 24.0616H186.718V37.3832Z" fill="#0015FF"/>
<path d="M196.985 37.4835V35.8684C196.584 35.8684 196.306 35.4971 196.15 34.7545C196.001 34.012 195.927 32.6531 195.927 30.6778C195.927 28.5393 196.005 27.1506 196.161 26.512C196.317 25.8734 196.599 25.5541 197.007 25.5541C197.416 25.5541 197.691 25.8697 197.832 26.5009C197.98 27.1321 198.054 28.3685 198.054 30.21L198.199 29.9761H195.704V31.4353H200.282C200.29 31.1976 200.293 30.9452 200.293 30.6778C200.293 28.4576 200.178 26.7794 199.948 25.6432C199.725 24.4997 198.745 23.9279 197.007 23.9279C195.277 23.9279 194.293 24.5071 194.056 25.6655C193.818 26.8165 193.699 28.4873 193.699 30.6778C193.699 32.6605 193.814 34.2904 194.045 35.5677C194.282 36.8449 195.262 37.4835 196.985 37.4835ZM196.985 35.8684V37.4835C197.839 37.4835 198.481 37.335 198.912 37.0379C199.35 36.7335 199.669 36.2323 199.87 35.5342C200.07 34.8288 200.186 33.8895 200.215 32.7162L198.043 32.5603C198.006 33.2583 197.95 33.8895 197.876 34.4538C197.809 35.0182 197.702 35.3969 197.553 35.5899C197.405 35.7756 197.215 35.8684 196.985 35.8684Z" fill="#0015FF"/>
</svg>
